<svg width="295" height="256" viewBox="0 0 295 256" fill="none" xmlns="http://www.w3.org/2000/svg">
<g filter="url(#filter0_f_1034_13)">
<path d="M33.7919 184.714L13.1319 200.49L9 229.038L20.644 246.317L43.182 243.687L115.678 222.652L113.424 177.201L33.7919 184.714Z" fill="url(#paint0_radial_1034_13)"/>
</g>
<path d="M35.8219 125.484L289.512 39.0567L247.78 28.6877L232.039 26.1074L218.576 20.864L149.263 0L113.833 33.532L70.3389 75.573L56.4309 93.758L36.5499 111.289L35.8219 125.484Z" fill="#FFDD55"/>
<path d="M34.1519 117.874L289.612 38.9897L279.386 171.41L44.3759 247.665L34.1519 117.874Z" fill="#F4E50F"/>
<g filter="url(#filter1_f_1034_13)">
<path d="M34.1519 121.033L285.502 45.5635L275.442 172.243L44.2119 245.193L34.1519 121.033Z" fill="#F4BE0F"/>
</g>
<path d="M35.6819 110.974L45.0648 248.454L29.5148 235.664L28.9152 233.481L27.9543 230.022L35.6819 110.974Z" fill="url(#paint1_linear_1034_13)"/>
<path d="M216.472 104.094C216.472 113.18 208.554 120.546 198.786 120.546C189.018 120.546 181.1 113.18 181.1 104.094C181.1 95.0074 189.018 87.6416 198.786 87.6416C208.554 87.6416 216.472 95.0074 216.472 104.094Z" fill="#F19B2B"/>
<g filter="url(#filter2_f_1034_13)">
<path d="M252.638 62.3662C254.274 69.6816 249.237 77.0352 241.388 78.7912C233.539 80.5468 225.849 76.0398 224.213 68.7242" fill="#FBE84A"/>
<path d="M224.628 70.1165C222.377 64.4401 226.759 58.0265 234.415 55.7905C242.07 53.5548 250.101 56.344 252.351 62.0204" fill="#FBE84A"/>
</g>
<g filter="url(#filter3_f_1034_13)">
<path d="M252.254 54.0195C253.89 61.3349 248.854 68.6885 241.004 70.4445C233.155 72.2001 225.465 67.6931 223.829 60.3775" fill="#F9E815"/>
<path d="M224.244 61.7693C221.994 56.0929 226.375 49.6793 234.031 47.4433C241.686 45.2076 249.717 47.9969 251.967 53.6733" fill="#F9E815"/>
</g>
<g filter="url(#filter4_f_1034_13)">
<path d="M252.254 54.0195C253.89 61.3349 248.854 68.6885 241.004 70.4445C233.155 72.2001 225.465 67.6931 223.829 60.3775" fill="#F6D830"/>
<path d="M224.244 61.7693C221.994 56.0929 226.375 49.6793 234.031 47.4433C241.686 45.2076 249.717 47.9969 251.967 53.6733" fill="#F6D830"/>
</g>
<path d="M252.132 57.6138C253.768 64.9292 249.138 73.0968 241.289 74.8528C233.44 76.6084 225.75 72.1014 224.114 64.7858" fill="#F8CC03"/>
<path d="M224.532 66.1838C222.281 60.5074 226.663 54.0938 234.319 51.8578C241.974 49.6221 250.005 52.4114 252.255 58.0878" fill="#F8CE05"/>
<g filter="url(#filter5_f_1034_13)">
<path d="M176.242 129.444C178.458 136.842 172.669 145.112 163.312 147.915C153.955 150.717 144.573 146.992 142.357 139.593C140.141 132.195 145.93 123.925 155.287 121.122C164.644 118.32 174.026 122.045 176.242 129.444Z" fill="#BD4E03"/>
</g>
<g filter="url(#filter6_f_1034_13)">
<path d="M142.132 132.774L144.459 135.82L148.448 136.717L153.435 137.433C153.435 137.433 157.99 134.882 158.655 135.061C159.32 135.24 167.338 135.456 167.338 135.456L173.677 125.684L177.037 133.501L173.863 140.254L170.555 145.14L164.904 148.366L154.765 149.083C154.765 149.083 146.786 146.574 145.955 145.678C145.124 144.782 142.132 139.943 142.132 139.943L142.132 132.774Z" fill="url(#paint2_linear_1034_13)"/>
</g>
<g filter="url(#filter7_f_1034_13)">
<path d="M182.252 108.844L187.739 112.435L197.189 114.393L206.03 110.476L209.993 100.683V89.9111L217.447 94.5646L217.653 99.936L217.117 108.031L214.575 114.733L210.298 116.722L206.952 123.955L198.801 123.414L183.516 119.979L182.393 111.779L182.252 108.844Z" fill="url(#paint3_linear_1034_13)"/>
</g>
<g filter="url(#filter8_f_1034_13)">
<path d="M198.612 112.384L202.786 118.966L206.96 117.36L203.267 110.216L198.612 112.384Z" fill="#FFEEAA"/>
</g>
<path d="M189.042 90.0335L204.035 90.9853C204.035 90.9853 203.655 101.37 202.786 104.606C201.917 107.843 201.757 113.473 193.717 112.33C185.677 111.188 183.175 112.306 182.523 106.595C181.871 100.884 181.219 102.217 182.74 98.4093C184.261 94.602 189.042 90.0335 189.042 90.0335Z" fill="url(#paint4_radial_1034_13)"/>
<g filter="url(#filter9_f_1034_13)">
<path d="M239.242 62.257L240.542 68.333C240.542 68.333 247.056 71.0755 246.614 69.4792C246.173 67.8828 244.106 61.5346 244.106 61.5346L239.242 62.257Z" fill="#FFEEAA"/>
</g>
<path d="M96.2619 230.783L94.3219 226.472L94.753 222.915L96.8008 220.221L99.6031 217.526L102.944 215.91L106.286 215.586L108.98 216.556L111.675 217.85L114.477 222.7L114.908 224.856L96.2619 230.783Z" fill="url(#paint5_linear_1034_13)"/>
<path d="M115.762 224.753L112.514 218.756L279.804 164.022L279.499 171.339L115.762 224.753Z" fill="url(#paint6_linear_1034_13)"/>
<path d="M44.5219 247.514L44.2512 237.998L95.1882 223.578L94.8833 230.894L44.5219 247.514Z" fill="url(#paint7_linear_1034_13)"/>
<g filter="url(#filter10_f_1034_13)">
<path d="M152.232 70.5339C152.232 73.4939 147.776 75.8935 142.278 75.8935C136.781 75.8935 132.325 73.4939 132.325 70.5339C132.325 67.5739 136.781 65.1743 142.278 65.1743C147.775 65.1743 152.232 67.5739 152.232 70.5339Z" fill="#FFD42A"/>
</g>
<g filter="url(#filter11_f_1034_13)">
<path d="M137.682 68.6138L139.213 71.6765L143.807 71.2936L139.979 67.0825L137.682 68.6138Z" fill="#FFEEAA"/>
</g>
<g filter="url(#filter12_f_1034_13)">
<path d="M199.447 47.9786C199.447 52.5426 190.702 56.2424 179.914 56.2424C169.126 56.2424 160.381 52.5426 160.381 47.9786C160.381 43.4146 169.126 39.7148 179.914 39.7148C190.702 39.7148 199.447 43.4146 199.447 47.9786Z" fill="url(#paint8_linear_1034_13)"/>
</g>
<defs>
<filter id="filter0_f_1034_13" x="0.210297" y="168.411" width="124.257" height="86.6946" filterUnits="userSpaceOnUse" color-interpolation-filters="sRGB">
<feFlood flood-opacity="0" result="BackgroundImageFix"/>
<feBlend mode="normal" in="SourceGraphic" in2="BackgroundImageFix" result="shape"/>
<feGaussianBlur stdDeviation="4.39485" result="effect1_foregroundBlur_1034_13"/>
</filter>
<filter id="filter1_f_1034_13" x="25.2118" y="36.6234" width="269.23" height="217.51" filterUnits="userSpaceOnUse" color-interpolation-filters="sRGB">
<feFlood flood-opacity="0" result="BackgroundImageFix"/>
<feBlend mode="normal" in="SourceGraphic" in2="BackgroundImageFix" result="shape"/>
<feGaussianBlur stdDeviation="4.47005" result="effect1_foregroundBlur_1034_13"/>
</filter>
<filter id="filter2_f_1034_13" x="218.814" y="49.7955" width="39.3558" height="34.5985" filterUnits="userSpaceOnUse" color-interpolation-filters="sRGB">
<feFlood flood-opacity="0" result="BackgroundImageFix"/>
<feBlend mode="normal" in="SourceGraphic" in2="BackgroundImageFix" result="shape"/>
<feGaussianBlur stdDeviation="2.61178" result="effect1_foregroundBlur_1034_13"/>
</filter>
<filter id="filter3_f_1034_13" x="218.43" y="41.4483" width="39.3558" height="34.599" filterUnits="userSpaceOnUse" color-interpolation-filters="sRGB">
<feFlood flood-opacity="0" result="BackgroundImageFix"/>
<feBlend mode="normal" in="SourceGraphic" in2="BackgroundImageFix" result="shape"/>
<feGaussianBlur stdDeviation="2.61178" result="effect1_foregroundBlur_1034_13"/>
</filter>
<filter id="filter4_f_1034_13" x="218.43" y="41.4483" width="39.3558" height="34.599" filterUnits="userSpaceOnUse" color-interpolation-filters="sRGB">
<feFlood flood-opacity="0" result="BackgroundImageFix"/>
<feBlend mode="normal" in="SourceGraphic" in2="BackgroundImageFix" result="shape"/>
<feGaussianBlur stdDeviation="2.61178" result="effect1_foregroundBlur_1034_13"/>
</filter>
<filter id="filter5_f_1034_13" x="140.932" y="119.237" width="36.7349" height="30.5628" filterUnits="userSpaceOnUse" color-interpolation-filters="sRGB">
<feFlood flood-opacity="0" result="BackgroundImageFix"/>
<feBlend mode="normal" in="SourceGraphic" in2="BackgroundImageFix" result="shape"/>
<feGaussianBlur stdDeviation="0.476159" result="effect1_foregroundBlur_1034_13"/>
</filter>
<filter id="filter6_f_1034_13" x="139.571" y="123.123" width="40.0268" height="28.5204" filterUnits="userSpaceOnUse" color-interpolation-filters="sRGB">
<feFlood flood-opacity="0" result="BackgroundImageFix"/>
<feBlend mode="normal" in="SourceGraphic" in2="BackgroundImageFix" result="shape"/>
<feGaussianBlur stdDeviation="1.28037" result="effect1_foregroundBlur_1034_13"/>
</filter>
<filter id="filter7_f_1034_13" x="178.987" y="86.6465" width="41.9305" height="40.5727" filterUnits="userSpaceOnUse" color-interpolation-filters="sRGB">
<feFlood flood-opacity="0" result="BackgroundImageFix"/>
<feBlend mode="normal" in="SourceGraphic" in2="BackgroundImageFix" result="shape"/>
<feGaussianBlur stdDeviation="1.6323" result="effect1_foregroundBlur_1034_13"/>
</filter>
<filter id="filter8_f_1034_13" x="196.047" y="107.652" width="13.4769" height="13.8781" filterUnits="userSpaceOnUse" color-interpolation-filters="sRGB">
<feFlood flood-opacity="0" result="BackgroundImageFix"/>
<feBlend mode="normal" in="SourceGraphic" in2="BackgroundImageFix" result="shape"/>
<feGaussianBlur stdDeviation="1.28227" result="effect1_foregroundBlur_1034_13"/>
</filter>
<filter id="filter9_f_1034_13" x="237.535" y="59.8278" width="10.8072" height="11.8575" filterUnits="userSpaceOnUse" color-interpolation-filters="sRGB">
<feFlood flood-opacity="0" result="BackgroundImageFix"/>
<feBlend mode="normal" in="SourceGraphic" in2="BackgroundImageFix" result="shape"/>
<feGaussianBlur stdDeviation="0.85342" result="effect1_foregroundBlur_1034_13"/>
</filter>
<filter id="filter10_f_1034_13" x="130.794" y="63.643" width="22.9696" height="13.7818" filterUnits="userSpaceOnUse" color-interpolation-filters="sRGB">
<feFlood flood-opacity="0" result="BackgroundImageFix"/>
<feBlend mode="normal" in="SourceGraphic" in2="BackgroundImageFix" result="shape"/>
<feGaussianBlur stdDeviation="0.765651" result="effect1_foregroundBlur_1034_13"/>
</filter>
<filter id="filter11_f_1034_13" x="136.61" y="66.0106" width="8.26903" height="6.73757" filterUnits="userSpaceOnUse" color-interpolation-filters="sRGB">
<feFlood flood-opacity="0" result="BackgroundImageFix"/>
<feBlend mode="normal" in="SourceGraphic" in2="BackgroundImageFix" result="shape"/>
<feGaussianBlur stdDeviation="0.535955" result="effect1_foregroundBlur_1034_13"/>
</filter>
<filter id="filter12_f_1034_13" x="159.547" y="38.8809" width="40.7338" height="18.1956" filterUnits="userSpaceOnUse" color-interpolation-filters="sRGB">
<feFlood flood-opacity="0" result="BackgroundImageFix"/>
<feBlend mode="normal" in="SourceGraphic" in2="BackgroundImageFix" result="shape"/>
<feGaussianBlur stdDeviation="0.416947" result="effect1_foregroundBlur_1034_13"/>
</filter>
<radialGradient id="paint0_radial_1034_13" cx="0" cy="0" r="1" gradientUnits="userSpaceOnUse" gradientTransform="translate(41.3003 236.548) rotate(-109.805) scale(30.3168 24.5998)">
<stop stop-color="#916F6F"/>
<stop offset="1" stop-color="#916F6F" stop-opacity="0"/>
</radialGradient>
<linearGradient id="paint1_linear_1034_13" x1="35.1819" y1="221.454" x2="21.8919" y2="117.324" gradientUnits="userSpaceOnUse">
<stop stop-color="#E5D10D"/>
<stop offset="1" stop-color="#E5D10D" stop-opacity="0"/>
</linearGradient>
<linearGradient id="paint2_linear_1034_13" x1="184.272" y1="142.004" x2="144.212" y2="139.854" gradientUnits="userSpaceOnUse">
<stop stop-color="#FF6600"/>
<stop offset="1" stop-color="#FF6600" stop-opacity="0"/>
</linearGradient>
<linearGradient id="paint3_linear_1034_13" x1="212.692" y1="116.404" x2="186.652" y2="106.214" gradientUnits="userSpaceOnUse">
<stop stop-color="#FFCC00"/>
<stop offset="1" stop-color="#FFCC00" stop-opacity="0"/>
</linearGradient>
<radialGradient id="paint4_radial_1034_13" cx="0" cy="0" r="1" gradientUnits="userSpaceOnUse" gradientTransform="translate(192.977 100.582) rotate(79.414) scale(10.7742 10.7567)">
<stop stop-color="#9C560A"/>
<stop offset="1" stop-color="#9C560A" stop-opacity="0"/>
</radialGradient>
<linearGradient id="paint5_linear_1034_13" x1="93.4219" y1="219.693" x2="96.2619" y2="231.863" gradientUnits="userSpaceOnUse">
<stop stop-color="#AA4400"/>
<stop offset="1" stop-color="white"/>
</linearGradient>
<linearGradient id="paint6_linear_1034_13" x1="197.402" y1="201.203" x2="194.712" y2="192.963" gradientUnits="userSpaceOnUse">
<stop stop-color="#AA8800"/>
<stop offset="1" stop-color="#AA8800" stop-opacity="0"/>
</linearGradient>
<linearGradient id="paint7_linear_1034_13" x1="123.772" y1="225.025" x2="121.082" y2="216.785" gradientUnits="userSpaceOnUse">
<stop stop-color="#AA8800"/>
<stop offset="1" stop-color="#AA8800" stop-opacity="0"/>
</linearGradient>
<linearGradient id="paint8_linear_1034_13" x1="187.797" y1="57.3696" x2="169.767" y2="39.3386" gradientUnits="userSpaceOnUse">
<stop stop-color="#FFA70A"/>
<stop offset="1" stop-color="#FFA70A" stop-opacity="0"/>
</linearGradient>
</defs>
</svg>
