<svg width="24" height="52" viewBox="0 0 24 52" fill="none" xmlns="http://www.w3.org/2000/svg">
<path fill-rule="evenodd" clip-rule="evenodd" d="M16.2753 41.4964C16.0353 41.9895 15.749 42.4618 15.5801 42.9926C15.4932 43.2658 15.4212 43.5443 15.3617 43.8255C15.2997 44.1187 15.291 44.4601 15.1723 44.734C15.0728 44.9637 15.0257 45.1096 15.038 45.3648C15.0488 45.592 14.9972 45.7853 14.8883 45.9804C14.6245 46.4522 14.2816 46.6242 13.8098 46.6202C13.5968 46.6183 13.3777 46.6101 13.1723 46.6997C12.9668 46.7895 12.8167 46.984 12.6203 47.0907C12.451 47.1827 12.2476 47.0568 12.0895 47.1861C11.8689 47.3664 11.6567 47.209 11.4207 47.2198C11.1537 47.2319 10.4972 47.507 10.4516 46.9782C10.4363 46.802 10.5045 46.6308 10.5337 46.4595C10.587 46.1461 10.6279 45.8296 10.6397 45.5122C10.6591 44.9897 10.5625 44.5713 10.3538 44.1204C10.1346 43.647 9.96736 43.1614 9.707 42.7131C9.47958 42.3219 9.21574 41.964 8.98642 41.5763C8.86973 41.3787 8.81635 41.1764 8.75536 40.9505C8.68303 40.6828 8.55748 40.4409 8.47696 40.177C8.3318 39.7009 8.20677 39.2281 8.14692 38.7225C8.11854 38.4839 8.11634 38.2398 8.05316 38.0095C7.98212 37.7508 8.01568 37.5333 7.98963 37.2687C7.88306 36.1922 7.63363 35.1523 7.45286 34.0883C7.16891 32.4166 7.06725 30.7284 7.03941 29.0163C7.02487 28.1207 7.02604 27.2241 7.02554 26.3278C7.02521 25.8802 7.02448 25.4328 7.02089 24.9855C7.01698 24.4887 7.09565 24.0054 7.1322 23.5105C7.1621 23.1061 7.13628 22.7017 7.17258 22.2972C7.21106 21.8692 7.30252 21.4389 7.37191 21.0145C7.51456 20.1408 7.69746 19.2586 7.93662 18.4085C8.04242 18.0336 8.12229 17.6976 8.19383 17.3133C8.22509 17.1448 8.28719 16.9855 8.33958 16.8238C8.40446 16.6237 8.41687 16.4061 8.49947 16.2138C8.65307 15.8564 8.70727 15.4653 8.84457 15.0979C9.01621 14.6387 9.19009 14.1762 9.27318 13.6876C9.46178 13.9956 9.48289 14.234 9.4996 14.5971C9.50589 14.7338 9.55406 14.8637 9.53023 15.0034C9.51864 15.0716 9.359 15.579 9.44391 15.6066C9.60289 15.6584 9.6921 15.063 9.71031 14.9721C9.73514 14.8487 9.76998 14.7264 9.77991 14.6006C9.79058 14.4661 9.73298 14.3514 9.7526 14.2151C9.8284 13.6906 9.70932 12.966 9.45938 12.5305C9.17652 12.0375 8.88165 11.4842 8.74236 10.9084C8.60051 10.3216 8.7422 9.70359 8.66018 9.10564C8.57196 8.46262 8.13215 8.17461 7.91996 7.61957C7.83 7.38444 7.7547 6.95601 7.80584 6.69602C7.85951 6.42337 8.14962 6.1448 8.29183 5.92145C8.42465 5.71293 8.56625 5.46596 8.66126 5.23187C8.75271 5.00659 8.65472 4.67216 8.61798 4.44431C8.57693 4.18926 8.53439 3.87528 8.651 3.6292C8.77216 3.37334 9.03781 3.18788 9.23999 3.02405C9.15218 3.54036 9.27392 4.10687 9.24785 4.62786C9.23569 4.87337 9.16013 5.12111 8.97376 5.27208C8.90912 5.32446 8.93337 5.41956 8.91169 5.49078C8.88305 5.58443 8.77878 5.64231 8.74154 5.74136C8.62178 6.05979 8.6884 6.47687 8.77514 6.7867C8.90002 7.23289 9.1612 7.79167 9.43704 8.13645C9.63293 8.3811 9.84471 8.62246 9.98647 8.88826C10.0869 9.07646 10.1152 9.32093 10.192 9.52401C10.2934 9.79197 10.4083 10.0518 10.5001 10.3248C10.6682 10.8251 10.7192 11.3231 10.792 11.8508C10.8707 12.4217 10.9457 12.9614 10.7951 13.5385C10.6467 14.1063 10.4672 14.635 10.3762 15.2198C10.275 15.8694 10.1776 16.5184 10.0672 17.1666L9.42496 20.9412C9.32366 21.5363 9.21045 22.1278 9.16245 22.7298C9.11171 23.3662 8.98485 23.9857 8.91765 24.6194C8.79012 25.824 8.84631 27.0382 8.89431 28.2386C9.01613 31.2821 9.57508 34.3048 10.268 37.2185C10.4335 37.9143 10.579 38.6166 10.7288 39.3175C10.8702 39.9799 11.0254 40.6474 11.1522 41.3121C11.2187 41.6605 11.2255 42.0264 11.2869 42.378C11.3502 42.7393 11.4234 43.099 11.457 43.4674C11.4927 43.8573 11.5575 44.2425 11.5716 44.6356C11.5802 44.8712 11.4669 45.069 11.6666 45.2337C11.4472 45.3132 11.2711 45.4885 11.0748 45.62C10.9324 45.7157 10.9497 45.9638 10.7916 46.0315C10.9926 46.1973 11.195 46.0618 11.4123 46.0053C11.6905 45.9331 11.9402 45.9193 12.1994 46.0507C12.3252 46.1147 12.4605 46.0579 12.5574 46.1832C12.6392 46.2887 12.7879 46.2168 12.8976 46.2056C13.2155 46.1732 13.5191 46.1051 13.8337 46.0398C13.9859 46.0082 14.7079 45.8139 14.6796 45.4924C14.6624 45.2947 14.2514 45.4579 14.1606 45.4767C13.8484 45.5412 13.5532 45.4522 13.277 45.3067C13.0449 45.1844 12.8035 44.9978 12.5343 45.0081C12.3731 45.0144 12.004 45.1264 12.0045 44.842C12.0048 44.612 12.0471 44.407 12.0325 44.1737C12.0148 43.8883 11.9698 43.6268 11.9181 43.3509C11.8237 42.8487 12.5787 42.9811 12.8378 42.9684C13.0968 42.9557 13.2955 42.8196 13.5128 42.664C13.7512 42.4932 14.0252 42.4081 14.2892 42.3124C14.225 42.69 14.0724 43.0434 14.0081 43.4209L13.785 44.7322C13.772 44.8084 13.8231 45.2207 13.9201 45.0395C14.0637 44.7711 14.0234 44.4177 14.0733 44.1238C14.1322 43.7782 14.1437 43.4134 14.2811 43.0879C14.4427 42.7053 14.5643 42.3406 14.6906 41.9419C14.9521 41.1166 15.226 40.2945 15.559 39.4991C15.8827 38.7258 16.1931 37.9461 16.4983 37.1638C16.7924 36.4105 17.0051 35.6435 17.2477 34.876C17.488 34.1154 17.8135 33.4024 17.9623 32.6078C18.0314 32.2381 18.2814 31.9503 18.4106 31.6076C18.556 31.2213 18.6247 30.8049 18.8054 30.4338C18.7274 30.8922 18.8513 31.3502 18.7706 31.8096C18.6895 32.2705 18.6722 32.7471 18.6117 33.2146C18.5865 33.4076 18.6199 33.5856 18.6146 33.7765C18.6088 33.9801 18.5494 34.1794 18.5068 34.3773C18.3932 34.9036 18.3093 35.4323 18.172 35.9538C17.9113 36.9441 17.6037 37.9033 17.2964 38.877C17.1497 39.3416 16.9465 39.785 16.8045 40.2486C16.7438 40.447 16.7138 40.6562 16.6328 40.8473C16.5346 41.0775 16.384 41.2732 16.2753 41.4964Z" fill="#438E14"/>
<path fill-rule="evenodd" clip-rule="evenodd" d="M18.1637 31.4831C17.7444 32.5198 17.4478 33.574 17.177 34.6631C17.0408 35.2113 16.8131 35.7313 16.6274 36.2612C16.4303 36.8243 16.2186 37.3805 15.9921 37.9304C15.5559 38.9892 15.1191 40.0582 14.5911 41.0667C14.377 41.4754 14.1012 41.9598 13.7394 42.222C13.5978 42.3244 13.109 42.5084 13.1065 42.7402C12.855 41.7297 13.0903 40.6631 13.2638 39.6435C13.3468 39.1559 13.6464 38.721 13.7695 38.2428C13.842 37.9605 13.8914 37.7082 13.9964 37.4349C14.0945 37.179 14.1953 36.9185 14.2396 36.6447C14.3229 36.1295 14.5615 35.6227 14.7238 35.1294C14.8994 34.5954 15.1568 34.0861 15.3539 33.5602C15.7718 32.4454 16.1591 31.3197 16.5869 30.2089C16.7969 29.6634 17.0311 29.117 17.2061 28.5571C17.3695 28.0342 17.4573 27.4902 17.5491 26.95C17.6493 26.3616 17.7434 25.7718 17.8509 25.1849C17.9487 24.6509 17.9096 24.0849 17.9564 23.5443C18.1299 21.5365 18.2544 19.4197 17.7737 17.486C17.7427 17.6681 17.7882 17.8431 17.7655 18.0233C17.7381 18.2385 17.7175 18.3845 17.7793 18.5915C17.8841 18.9424 17.8607 19.2876 17.8634 19.6581C17.8694 20.4524 17.754 21.2318 17.8174 22.0254C17.8812 22.8239 17.7135 23.6692 17.6858 24.4738C17.6556 25.3594 17.5267 26.306 17.3164 27.1683C16.8923 28.9059 16.282 30.5727 15.6357 32.2275C15.3043 33.0758 14.9845 33.929 14.6563 34.7787C14.4924 35.2035 14.3263 35.6273 14.1557 36.049C13.9708 36.5062 13.892 37.0017 13.7266 37.4663C14.1339 36.3232 14.3352 35.1108 14.7309 33.9636C14.9272 33.395 15.0953 32.8163 15.295 32.2488C15.4961 31.6783 15.6199 31.0768 15.8426 30.5151C16.0418 30.0131 16.3207 29.5572 16.4459 29.0219C16.5113 28.7428 16.5418 28.4571 16.6049 28.1779C16.6769 27.8588 16.7953 27.554 16.855 27.2315C17.0713 26.0651 17.0608 24.8658 17.1195 23.6904C17.1332 23.4158 17.198 23.1494 17.2204 22.8765C17.2404 22.6342 17.2082 22.3942 17.2103 22.1527C17.216 21.5044 17.2282 20.8559 17.2436 20.2074L17.2873 18.3609C17.2933 18.1031 17.2332 17.8546 17.2202 17.5992C17.2049 17.2999 17.2475 16.9998 17.2573 16.7001C17.2752 16.1579 17.2009 15.6135 17.1948 15.0713C17.1888 14.5127 17.0202 13.9793 17.0378 13.4176C17.0554 12.8558 16.9389 12.3053 16.8753 11.7552C16.8437 11.483 16.8364 11.1862 16.7713 10.9231C16.7033 10.648 16.7734 10.4131 16.7514 10.1344C16.7289 9.85035 16.5576 9.50497 16.5906 9.22522C16.6293 8.89682 16.5999 8.58651 16.6172 8.25367C16.6537 7.54932 16.7511 6.84951 17.0916 6.2454C17.2359 5.98946 17.3585 5.80788 17.41 5.50517C17.4758 5.11883 17.5447 4.73289 17.6066 4.34602C17.7254 3.6028 17.7932 2.83241 18.0765 2.13196C18.1891 2.31585 18.3471 2.47429 18.3914 2.70359C18.4418 2.96434 18.4439 3.24204 18.4791 3.50688C18.5522 4.05721 18.5239 4.64772 18.418 5.19918C18.3685 5.45693 18.2563 5.68831 18.2018 5.94618C18.1481 6.20096 17.9562 6.37472 17.8769 6.62028C17.7974 6.86703 17.7293 7.11381 17.644 7.36C17.5429 7.65227 17.5848 7.90127 17.5821 8.19965C17.5798 8.4459 17.4631 8.69929 17.5409 8.93987C17.5971 9.11428 17.5358 9.33734 17.5114 9.51617C17.4361 10.0651 17.5641 10.6588 17.6736 11.1828C17.7819 11.7002 17.8065 12.241 17.9396 12.749C18.0903 13.3236 18.2098 13.8953 18.3232 14.4829C18.5527 15.672 18.7337 16.8816 18.9976 18.0594C19.1179 18.5962 19.2182 19.118 19.29 19.6679C19.3658 20.249 19.5218 20.8092 19.6116 21.3881C19.6912 21.9026 19.6951 22.3531 19.6707 22.8773C19.6603 23.1039 19.712 23.3345 19.6766 23.558C19.6341 23.826 19.7142 24.0489 19.6449 24.3163C19.579 24.57 19.6485 24.7893 19.6367 25.0419C19.6228 25.3378 19.5412 25.6244 19.483 25.9133C19.3769 26.4424 19.2139 26.9402 19.1233 27.4727C18.8957 28.8109 18.7597 30.2591 18.1637 31.4831Z" fill="#438E14"/>
<path fill-rule="evenodd" clip-rule="evenodd" d="M13.8724 49.0993C13.4414 49.183 12.9882 49.2098 12.5779 49.4083C12.3398 49.5237 11.9365 49.6314 11.8024 49.9135C11.6167 50.3043 12.3613 49.7898 12.4472 49.7323C12.8457 49.4657 13.3036 49.375 13.7477 49.2887C13.5307 49.4646 13.2886 49.5888 13.0467 49.7096C12.783 49.8414 12.5333 50.0352 12.2662 50.15C12.0738 50.2325 11.097 50.5127 11.0292 50.1768C10.9933 49.9989 11.0658 49.7783 11.0435 49.586C11.0093 49.2945 11.1562 49.0266 11.1472 48.7406C11.1407 48.531 11.0977 48.3164 11.1345 48.1055C11.1832 47.8261 11.4494 47.8783 11.6417 47.8156C12.1677 47.6444 12.585 47.1377 13.115 47.0309C13.2344 47.0069 13.3692 46.9475 13.4893 46.9468C13.6128 46.9463 13.7237 46.9991 13.842 46.921C14 46.8168 14.0826 46.7529 14.1288 46.9795C14.1954 47.3059 14.1783 47.6786 14.1516 48.0144C14.1293 48.2955 14.178 48.9746 13.8724 49.0993Z" fill="#438E14"/>
<path fill-rule="evenodd" clip-rule="evenodd" d="M11.4886 45.7305L11.3989 45.715C11.645 45.5154 11.8389 45.2653 12.151 45.2163C12.2998 45.1928 12.449 45.2005 12.5979 45.1846C12.5817 45.227 12.6315 45.2682 12.6549 45.2874C12.8838 45.4769 13.2492 45.6142 13.5329 45.6635C13.1583 45.6695 12.7799 45.6612 12.4159 45.5705C12.078 45.4864 11.8076 45.5846 11.4886 45.7305Z" fill="#438E14"/>
<path fill-rule="evenodd" clip-rule="evenodd" d="M16.453 26.3318C16.4075 26.1813 16.2591 26.2771 16.1905 26.165C16.1248 26.0579 16.0475 25.9541 16.0154 25.8249C15.984 25.6983 16.0065 25.5733 16.0749 25.4642C16.1906 25.2798 16.1948 25.1348 16.231 24.9214C16.3268 25.0779 16.4606 25.2099 16.421 25.4151C16.3841 25.607 16.5505 25.8605 16.5951 26.0399C16.45 25.974 16.4678 26.2449 16.453 26.3318Z" fill="#FEC600"/>
<path fill-rule="evenodd" clip-rule="evenodd" d="M16.1738 27.9718C16.1963 27.8399 16.2463 27.6973 16.1726 27.5768C16.1317 27.5101 16.1348 27.2368 16.0927 27.2141C15.9086 27.1156 16.2055 26.7984 16.2212 26.608C16.1852 26.8188 16.312 26.9823 16.3138 27.1882C16.316 27.455 16.2181 27.7116 16.1738 27.9718Z" fill="#FEC600"/>
<path fill-rule="evenodd" clip-rule="evenodd" d="M16.3011 24.5113C16.3211 24.3934 16.3836 24.2531 16.3159 24.1426C16.2424 24.0229 16.1779 23.8938 16.154 23.747C16.134 23.6253 16.0663 23.6603 16.171 23.55C16.3008 23.4135 16.3342 23.2306 16.3658 23.0452C16.5357 23.2511 16.6386 23.6139 16.5898 23.901C16.5953 24.0334 16.6779 24.0546 16.6336 24.216C16.5904 24.3734 16.6959 24.5308 16.6427 24.6762L16.3011 24.5113Z" fill="#FEC600"/>
<path fill-rule="evenodd" clip-rule="evenodd" d="M15.4663 29.9592C15.1818 29.9098 14.57 29.9815 14.453 29.5937C14.4019 29.4242 14.425 28.4184 14.692 28.4512C14.9728 28.4858 15.8228 28.428 15.8029 28.9428C15.7981 29.0687 15.6221 30.0344 15.4663 29.9592Z" fill="#FEC600"/>
<path fill-rule="evenodd" clip-rule="evenodd" d="M15.5481 28.3907C15.4586 28.0558 14.8706 28.2451 14.6506 28.2348C14.7249 27.9991 14.4204 27.7254 14.4526 27.4706C14.4757 27.2888 14.7033 27.3816 14.7339 27.2129C14.7676 27.0257 14.7591 26.8371 14.9874 26.8931C15.2525 26.9581 15.8793 27.0215 15.9815 27.3606C16.0999 27.7536 15.8046 28.1827 15.5481 28.3907Z" fill="#FEC600"/>
<path fill-rule="evenodd" clip-rule="evenodd" d="M14.3969 31.3563C14.5791 31.0796 14.3224 30.9001 14.2639 30.6508C14.1882 30.3278 14.4878 30.2793 14.534 30.0083C14.7847 30.2151 15.0614 30.1441 15.3339 30.2478C15.5113 30.3152 15.3348 30.6455 15.2837 30.758C15.2084 30.9234 15.1832 31.1021 15.114 31.2695C14.975 31.606 14.6325 31.3973 14.3969 31.3563Z" fill="#FEC600"/>
<path fill-rule="evenodd" clip-rule="evenodd" d="M16.5803 22.8715C16.4362 22.8806 16.4759 22.739 16.4357 22.6353C16.3749 22.4789 16.1838 22.3894 16.2195 22.1888C16.2555 21.9868 16.6506 21.6662 16.448 21.4767C16.6063 21.6072 16.7323 21.7711 16.7205 22.0103C16.708 22.266 16.7237 22.6537 16.5803 22.8715Z" fill="#FEC600"/>
<path fill-rule="evenodd" clip-rule="evenodd" d="M15.7029 26.9401C15.4787 26.8072 15.2295 26.7523 14.9789 26.7089C14.7852 26.6752 14.8515 26.4768 14.8078 26.3175C14.7527 26.1166 14.6256 26.0139 14.7348 25.79C14.7504 25.758 14.9075 25.4302 14.8608 25.422C15.1716 25.476 15.6096 25.4804 15.8199 25.7805C16.0177 26.0627 16.0973 26.7977 15.7029 26.9401Z" fill="#FEC600"/>
<path fill-rule="evenodd" clip-rule="evenodd" d="M14.6561 33.0899C14.5398 33.0698 14.3551 33.1198 14.2595 33.0285C14.1712 32.9443 14.2596 32.7415 14.1936 32.619C14.0682 32.3858 14.2626 31.9516 14.3891 31.7167C14.5071 31.4976 15.0059 31.5704 14.9143 31.8433C14.7788 32.2478 14.7278 32.6689 14.6561 33.0899Z" fill="#FEC600"/>
<path fill-rule="evenodd" clip-rule="evenodd" d="M16.6619 21.303C16.5036 21.1724 16.495 21.0056 16.4027 20.8282C16.3328 20.6937 16.2019 20.5754 16.2774 20.4091C16.3055 20.3475 16.5995 19.7016 16.5789 19.6995C16.8947 19.7318 16.693 21.1205 16.6619 21.303Z" fill="#FEC600"/>
<path fill-rule="evenodd" clip-rule="evenodd" d="M15.7675 25.4741C15.4987 25.4273 15.2333 25.3046 14.9665 25.2414C14.8142 25.2054 14.9923 24.994 14.9211 24.8776C14.8624 24.7817 14.9494 24.6618 14.8916 24.5676C14.8513 24.5018 14.6996 24.3711 14.8278 24.2968C14.9578 24.2217 14.9348 23.8178 14.9614 23.6779C15.0216 23.3624 15.8851 23.6976 15.9846 23.9002C16.1138 24.1632 16.1353 24.4501 16.0773 24.7491C16.0539 24.8712 16.0054 24.9651 15.9433 25.0682C15.8636 25.201 15.9315 25.4042 15.7675 25.4741Z" fill="#FEC600"/>
<path fill-rule="evenodd" clip-rule="evenodd" d="M14.1427 34.4782C14.2129 34.2838 13.9871 34.1135 13.9696 33.9303C13.9465 33.6912 14.1048 33.5456 14.1586 33.3349C14.2387 33.022 14.4433 33.3332 14.4613 33.4791C14.5063 33.8407 14.2701 34.1632 14.1427 34.4782Z" fill="#FEC600"/>
<path fill-rule="evenodd" clip-rule="evenodd" d="M15.9193 23.4955C15.4915 23.4213 15.0325 23.4583 14.8219 22.9708C14.7431 22.7886 14.9186 22.6239 14.9536 22.4566C14.9914 22.2777 14.97 22.0309 15.1891 22.0567C15.3888 22.0802 15.6131 22.1688 15.7907 22.2649C15.9505 22.3515 16.1482 22.3029 16.227 22.5245C16.334 22.8245 16.1501 23.3084 15.9193 23.4955Z" fill="#FEC600"/>
<path fill-rule="evenodd" clip-rule="evenodd" d="M16.7362 18.1501C16.6876 17.9545 16.5907 17.7963 16.447 17.6778C16.7231 17.5779 16.704 17.2535 16.7486 16.9915C16.8664 17.1836 17.1083 18.2147 16.7362 18.1501Z" fill="#FEC600"/>
<path fill-rule="evenodd" clip-rule="evenodd" d="M16.6893 19.5136C16.5392 19.5232 16.5013 19.3145 16.4659 19.1915C16.3986 18.9563 16.5504 18.8662 16.642 18.669C16.7443 18.4479 16.8043 18.7599 16.8038 18.873C16.8027 19.0917 16.7256 19.3002 16.6893 19.5136Z" fill="#FEC600"/>
<path fill-rule="evenodd" clip-rule="evenodd" d="M13.8235 35.267L13.9481 35.0775L13.8958 35.385C13.8687 35.3482 13.8446 35.3089 13.8235 35.267Z" fill="#FEC600"/>
<path fill-rule="evenodd" clip-rule="evenodd" d="M15.9839 22.0293C15.704 21.9808 15.4067 21.9619 15.1317 21.8943C15.0725 21.8798 14.9461 21.429 14.9296 21.3397C14.9098 21.2327 14.9067 21.1185 14.9357 21.0107C14.9596 20.922 15.1097 20.7777 15.0923 20.6914C15.0655 20.5565 14.9549 20.4577 15.1718 20.4806C15.3816 20.5027 15.592 20.5671 15.7937 20.6276C15.9648 20.6789 16.2669 20.6966 16.2662 20.9221C16.2652 21.29 16.34 21.8126 15.9839 22.0293Z" fill="#FEC600"/>
<path fill-rule="evenodd" clip-rule="evenodd" d="M13.4001 36.6708C13.1406 36.6984 12.881 36.6891 12.6282 36.6319C12.478 36.5978 12.2055 36.7484 12.1255 36.5386C12.0352 36.3021 12.1278 35.9681 12.1738 35.7252C12.2262 35.4476 12.3321 35.3429 12.5848 35.329C12.8258 35.3157 13.6835 35.1771 13.6861 35.5749C13.6882 35.8828 13.7312 36.5285 13.4001 36.6708Z" fill="#FEC600"/>
<path fill-rule="evenodd" clip-rule="evenodd" d="M12.1543 42.3637C11.6489 42.2759 11.7569 41.9739 11.6482 41.5371C11.871 41.5758 12.0915 41.666 12.3217 41.5978C12.4274 41.5664 12.5898 41.5283 12.6735 41.6272C12.7972 41.7738 12.6434 41.9977 12.5786 42.1353C12.4603 42.3861 12.3988 42.4061 12.1543 42.3637Z" fill="#FEC600"/>
<path fill-rule="evenodd" clip-rule="evenodd" d="M11.8876 42.845C11.9147 42.778 11.9033 42.7423 11.8385 42.731C11.779 42.7207 11.8445 42.5554 11.8502 42.522C12.0518 42.6883 12.3093 42.7072 12.5507 42.7491C12.3338 42.8279 12.1046 42.7664 11.8876 42.845Z" fill="#FEC600"/>
<path fill-rule="evenodd" clip-rule="evenodd" d="M13.5718 35.1176C13.2565 35.1788 12.9396 35.0595 12.6278 35.1384C12.508 35.1685 12.0355 35.4221 12.0932 35.127C12.1154 35.0135 12.0984 34.9895 12.0547 34.8963C12.0136 34.8083 12.0754 34.5505 12.0879 34.451C12.1236 34.167 12.2405 34.0231 12.4826 33.9558C12.8338 33.8578 13.2214 33.8958 13.5699 33.9563C14.0786 34.0449 13.8929 34.8574 13.5718 35.1176Z" fill="#FEC600"/>
<path fill-rule="evenodd" clip-rule="evenodd" d="M13.0661 38.0902C12.778 38.1945 12.3191 38.3118 12.0788 38.0566C11.8009 37.7613 11.9664 37.0803 12.3134 36.922C12.569 36.8053 13.3417 36.5958 13.4398 37.0209C13.5127 37.3367 13.3054 37.8961 13.0661 38.0902Z" fill="#FEC600"/>
<path fill-rule="evenodd" clip-rule="evenodd" d="M11.8619 41.3634C11.5241 41.3047 11.4803 40.891 11.5353 40.568C11.615 41.2564 12.352 40.7905 12.7113 41.1165C12.8169 41.2124 12.5447 41.3458 12.4925 41.3613C12.2916 41.4208 12.0616 41.3981 11.8619 41.3634Z" fill="#FEC600"/>
<path fill-rule="evenodd" clip-rule="evenodd" d="M15.9768 20.445C15.8809 20.4284 15.1419 20.2079 15.1516 20.4072C15.038 20.301 15.1605 19.944 14.9521 19.9505C15.1461 19.8673 15.2032 19.4285 15.2469 19.2318C15.321 18.8992 15.8754 19.1236 16.0688 19.1888C16.1927 19.2306 16.3272 19.3145 16.4016 19.4361C16.4969 19.592 16.2976 19.6451 16.2746 19.78C16.2539 19.9014 16.2861 20.1056 16.1807 20.1912C16.1357 20.2277 16.1085 20.3887 16.0415 20.3772C15.9829 20.367 15.9717 20.3321 15.9768 20.445Z" fill="#FEC600"/>
<path fill-rule="evenodd" clip-rule="evenodd" d="M12.3258 40.8107C12.1537 40.7809 11.8957 40.7182 11.797 40.5381C11.7195 40.3965 11.7738 40.2027 11.7934 40.0476C11.8501 39.5972 12.1567 39.6688 12.4597 39.6753C12.5802 39.6779 12.7141 39.5992 12.831 39.6304C12.945 39.6609 12.8175 40.0252 12.8437 40.1309C12.9526 40.5681 12.7316 40.8812 12.3258 40.8107Z" fill="#FEC600"/>
<path fill-rule="evenodd" clip-rule="evenodd" d="M16.5667 16.4321L16.7611 15.8328C16.9145 16.0214 16.9509 16.3459 16.9082 16.597L16.5667 16.4321Z" fill="#FEC600"/>
<path fill-rule="evenodd" clip-rule="evenodd" d="M12.9292 39.4381C12.6917 39.3969 12.4193 39.5566 12.2075 39.3833C12.0337 39.2411 11.9491 38.9786 11.9394 38.7386C11.9309 38.5262 12.0503 38.3525 12.2467 38.3649C12.5615 38.3848 12.8046 38.4252 13.121 38.3107L12.9292 39.4381Z" fill="#FEC600"/>
<path fill-rule="evenodd" clip-rule="evenodd" d="M13.6368 33.6516C13.2905 33.6698 12.945 33.6945 12.5992 33.7156C12.327 33.7322 12.0845 33.6029 12.0148 33.2894C11.961 33.0479 11.9729 32.6195 12.1493 32.4266C12.3203 32.2396 12.599 32.265 12.8115 32.2632C13.1427 32.2604 13.6527 32.2001 13.9151 32.4608C14.1263 32.6705 14.046 33.8006 13.6368 33.6516Z" fill="#FEC600"/>
<path fill-rule="evenodd" clip-rule="evenodd" d="M16.2383 18.9077C15.9244 18.8532 15.4347 18.943 15.2038 18.6496C15.043 18.4456 15.0964 17.7673 15.3546 17.6585C15.608 17.5517 16.2443 17.7205 16.4474 17.9049C16.7302 18.1617 16.3981 18.6648 16.2383 18.9077Z" fill="#FEC600"/>
<path fill-rule="evenodd" clip-rule="evenodd" d="M13.9879 32.1297C13.6689 32.0743 13.3112 32.0143 12.9853 32.0632C12.7831 32.0937 12.5613 32.1884 12.3587 32.1461C12.1131 32.0948 12.2544 31.6823 12.2821 31.5076C12.3041 31.3689 12.2075 31.2624 12.2332 31.1371C12.2616 30.9987 12.4044 30.91 12.5067 30.8534C12.7982 30.6922 13.1053 30.7111 13.4149 30.6689C13.6624 30.6354 14.0722 30.5307 14.1939 30.8628C14.2923 31.131 14.3089 31.9989 13.9879 32.1297Z" fill="#FEC600"/>
<path fill-rule="evenodd" clip-rule="evenodd" d="M16.2849 17.544L16.0142 17.5966C15.9183 17.6153 15.8638 17.466 15.7711 17.4577C15.6069 17.443 15.3188 17.4915 15.2454 17.2735C15.2151 17.1835 15.2839 17.0937 15.2504 17.0105C15.2197 16.9345 15.1246 16.9035 15.1159 16.8132C15.1019 16.6722 15.1977 16.29 15.3277 16.2253C15.5708 16.1045 16.002 16.288 16.2003 16.4416C16.344 16.5528 16.5961 16.7392 16.5745 16.9736C16.5532 17.2042 16.2818 17.3071 16.2849 17.544Z" fill="#FEC600"/>
<path fill-rule="evenodd" clip-rule="evenodd" d="M14.3367 30.0797C14.1293 30.2479 13.9823 30.4443 13.7161 30.473C13.3839 30.5087 13.0539 30.5789 12.7211 30.6065C12.1094 30.657 12.3454 29.9731 12.216 29.5527C12.1332 29.2838 12.5439 29.052 12.718 29.0309C12.958 29.0019 13.2081 29.0265 13.4506 29.0077C13.6695 28.9906 13.9808 28.9843 14.1587 29.1449C14.3204 29.2907 14.3363 29.5606 14.389 29.7726C14.2148 29.6884 14.3627 30.0086 14.3367 30.0797Z" fill="#FEC600"/>
<path fill-rule="evenodd" clip-rule="evenodd" d="M16.405 16.2983C16.0551 16.2377 15.7298 16.0756 15.3799 16.0148C15.2482 15.9919 15.3699 15.5451 15.146 15.5521C15.2276 15.4283 15.3809 15.3553 15.4028 15.1891C15.4133 15.1101 15.3695 14.8991 15.4678 14.8742C15.655 14.8269 15.8892 14.9207 16.0682 14.9662C16.2958 15.0242 16.4168 15.0755 16.4993 15.335C16.5409 15.4661 16.6362 15.5789 16.6127 15.7275C16.58 15.933 16.4405 16.0897 16.405 16.2983Z" fill="#FEC600"/>
<path fill-rule="evenodd" clip-rule="evenodd" d="M14.08 28.8744C13.5022 28.7741 12.9065 28.7722 12.3224 28.8857C12.3614 28.7795 12.2636 28.7352 12.2649 28.6325C12.2663 28.5207 12.3122 28.394 12.3359 28.287C12.3749 28.1098 12.2498 27.9079 12.3544 27.7724C12.6492 27.3906 13.0602 27.7089 13.435 27.6638C13.7089 27.6308 14.1464 27.5253 14.3283 27.8239C14.517 28.1343 14.4368 28.745 14.08 28.8744Z" fill="#FEC600"/>
<path fill-rule="evenodd" clip-rule="evenodd" d="M15.4825 14.6609C15.3745 14.561 15.503 14.4324 15.4344 14.3204C15.3677 14.2114 15.3088 14.1022 15.3264 13.9601C15.3613 13.6783 15.4816 13.4837 15.7498 13.5398C16.0528 13.6029 16.3086 13.7013 16.4488 14.0292C16.5661 14.3036 16.6859 14.6484 16.6317 14.9661C16.28 14.7575 15.872 14.7285 15.4825 14.6609Z" fill="#FEC600"/>
<path fill-rule="evenodd" clip-rule="evenodd" d="M14.3417 27.3369C14.1926 27.3909 14.0411 27.3903 13.8905 27.3641C13.8401 27.3635 13.793 27.3785 13.7494 27.4094C13.6408 27.4642 13.5309 27.4071 13.4243 27.3887C13.297 27.3665 13.1807 27.4665 13.0516 27.4338C12.8638 27.3862 12.6673 27.3662 12.477 27.4351C12.5301 27.1233 12.3425 26.7037 12.5411 26.4241C12.8479 25.992 13.2421 26.1979 13.6579 26.1487C13.9535 26.1137 14.4721 25.9923 14.6294 26.3699C14.7554 26.6723 14.578 27.1455 14.3417 27.3369Z" fill="#FEC600"/>
<path fill-rule="evenodd" clip-rule="evenodd" d="M14.2095 25.9421C13.8241 25.8752 12.9083 26.1352 12.6773 25.6861C12.3813 25.1103 12.7599 24.5689 13.2884 24.4671C13.5692 24.4132 13.8937 24.3345 14.1754 24.376C14.348 24.4013 14.6904 24.537 14.7137 24.7593C14.762 25.2204 14.654 25.7811 14.2095 25.9421Z" fill="#FEC600"/>
<path fill-rule="evenodd" clip-rule="evenodd" d="M16.6794 13.6023C16.6089 13.59 16.47 13.6252 16.4286 13.538C16.3781 13.4319 16.36 13.4265 16.2322 13.4087C16.1215 13.3932 16.0063 13.3911 15.9058 13.3331C15.7889 13.2657 15.536 13.3278 15.4874 13.1768C15.3859 12.8612 15.3514 12.5953 15.0277 12.4749C14.8816 12.4206 14.6905 12.3689 14.5333 12.3856C14.4104 12.3988 14.1858 12.4948 14.1266 12.3149C14.074 12.1549 14.2234 11.992 14.1824 11.818C14.1517 11.6889 14.1218 11.5817 14.1901 11.4527C14.3431 11.165 14.4535 11.1196 14.7619 11.1575C14.9743 11.1837 15.3691 11.1643 15.3747 11.5034C15.3812 11.8882 15.1669 12.1801 15.3831 12.5331C15.4093 12.3792 15.3651 11.9303 15.5832 11.9411C15.7717 11.9503 15.9615 12.0747 16.1216 12.1717C16.3222 12.2932 16.5391 12.4655 16.6015 12.7299C16.6443 12.9108 16.7461 13.4197 16.6794 13.6023Z" fill="#FEC600"/>
<path fill-rule="evenodd" clip-rule="evenodd" d="M14.4162 24.1839C14.139 24.2135 13.8663 24.1564 13.5911 24.1461C13.2995 24.1351 13.0146 24.2389 12.731 24.3133C12.7688 24.2101 12.6805 24.173 12.6726 24.0805C12.665 23.9944 12.6952 23.906 12.7172 23.8244C12.7475 23.7114 12.7691 23.5941 12.7808 23.4777C12.6803 23.3217 12.7274 23.2842 12.8424 23.1516C13.1883 22.7527 13.5582 22.9324 13.9817 22.9328C14.1851 22.9329 14.6503 22.838 14.7559 23.0997C14.8989 23.4543 14.7735 24.0546 14.4162 24.1839Z" fill="#FEC600"/>
<path fill-rule="evenodd" clip-rule="evenodd" d="M11.5505 39.9375C11.5087 40.0514 11.6399 40.1348 11.591 40.2427C11.5136 40.413 11.3962 40.3211 11.3523 40.2009C11.2279 39.8612 11.2101 39.4827 11.134 39.1265C11.3067 39.1565 11.7666 39.0882 11.8652 39.2891C11.958 39.4779 11.6489 39.7879 11.5505 39.9375Z" fill="#FEC600"/>
<path fill-rule="evenodd" clip-rule="evenodd" d="M14.4809 22.7179C14.1988 22.6689 13.9044 22.6306 13.6173 22.691C13.3785 22.7411 12.985 22.9415 12.8726 22.5964C12.8052 22.3889 12.8823 22.1676 12.8243 21.9692C12.7416 21.6866 12.9332 21.2712 13.2231 21.2303C13.4425 21.1993 13.6725 21.291 13.8977 21.2782C14.1564 21.2636 14.4611 21.2639 14.6765 21.4374C14.9035 21.6202 14.7542 21.9181 14.818 22.1745C14.8527 22.3138 14.7944 22.375 14.7319 22.4853C14.7151 22.5379 14.6908 22.586 14.6592 22.6292C14.5992 22.6734 14.5331 22.6475 14.4809 22.7179Z" fill="#FEC600"/>
<path fill-rule="evenodd" clip-rule="evenodd" d="M15.5393 11.6107C15.2399 11.3331 15.73 10.7218 15.5342 10.5546C16.2141 10.6726 16.3894 11.5762 16.5464 12.2077C16.2108 12.0087 15.8467 11.8643 15.5393 11.6107Z" fill="#FEC600"/>
<path fill-rule="evenodd" clip-rule="evenodd" d="M14.5631 21.1493C14.2753 21.0994 13.9823 21.0785 13.6888 21.0939C13.4289 21.1075 13.1733 21.0232 12.9128 21.0738C12.9703 20.7357 12.7829 20.123 13.1241 19.9128C13.375 19.7583 13.7087 19.8356 13.9684 19.8843C14.0443 19.8986 14.9476 19.9753 14.9065 20.2165C14.8801 20.3713 14.9512 20.5465 14.8805 20.6949C14.7777 20.9107 14.7488 20.9985 14.5631 21.1493Z" fill="#FEC600"/>
<path fill-rule="evenodd" clip-rule="evenodd" d="M11.7076 39.0148C11.326 38.9485 11.1308 38.7274 10.9825 38.3445C10.9089 38.1541 10.9113 37.6501 11.1902 37.663C11.4369 37.6745 11.9169 37.4848 11.8992 37.9339C11.8919 38.1185 11.8458 38.3533 11.7815 38.5266C11.7315 38.6621 11.5727 38.8888 11.7076 39.0148Z" fill="#FEC600"/>
<path fill-rule="evenodd" clip-rule="evenodd" d="M14.7175 19.6988C14.2708 19.6212 13.7795 19.7577 13.3462 19.5877C13.1117 19.4957 13.263 19.1832 13.2217 18.9747C13.1873 18.8027 13.328 18.4286 13.4776 18.35C13.8227 18.1689 14.3723 18.2232 14.7088 18.35C14.9798 18.4523 15.038 18.6048 15.0266 18.9149C15.0214 19.051 15.0786 19.1848 15.0453 19.32C15.0018 19.4963 14.8398 19.5997 14.7175 19.6988Z" fill="#FEC600"/>
<path fill-rule="evenodd" clip-rule="evenodd" d="M11.6996 37.4306C11.4942 37.395 11.3233 37.5397 11.167 37.3434C11.1104 37.2722 11.0023 36.9849 10.9144 36.9772C10.7987 36.967 10.9283 36.5068 10.948 36.4016C10.9806 36.2254 11.1394 36.2817 11.2587 36.2652C11.443 36.2397 11.8547 36.0898 11.9363 36.3446C11.9752 36.4657 12.0577 36.6954 11.9631 36.8153C11.8377 36.9743 11.7169 37.2189 11.6996 37.4306Z" fill="#FEC600"/>
<path fill-rule="evenodd" clip-rule="evenodd" d="M14.8894 18.1458C14.4657 18.0722 14.0014 17.8871 13.5745 18.0933C13.506 18.1263 13.4155 18.2542 13.3692 18.1563C13.3198 18.0517 13.3052 17.9195 13.2964 17.8016C13.2806 17.5882 13.3182 17.3269 13.4277 17.1427C13.5924 16.8651 13.7888 16.9303 14.0323 16.9242C14.324 16.9168 14.5305 16.8598 14.7939 17.041C14.9606 17.1556 15.1011 17.2956 15.0983 17.5346C15.0963 17.7142 15.0703 18.0673 14.8894 18.1458Z" fill="#FEC600"/>
<path fill-rule="evenodd" clip-rule="evenodd" d="M11.012 36.0448C11.0435 35.959 11.0093 35.8812 10.9723 35.8107C10.9065 35.6855 10.9129 35.6208 10.9155 35.4767C10.9201 35.2304 10.8676 35.0454 11.0628 34.8572C11.2174 34.7084 11.3654 34.7788 11.5381 34.7349C11.7456 34.6823 11.8566 34.624 11.8654 34.8853C11.8721 35.0847 12.0239 35.2184 12.0444 35.4129C12.0597 35.5595 11.8407 35.7186 11.8929 35.858C11.9365 35.9741 12.0163 35.9737 11.8112 36.003C11.5512 36.0401 11.2741 36.031 11.012 36.0448Z" fill="#FEC600"/>
<path fill-rule="evenodd" clip-rule="evenodd" d="M16.2875 10.4741C16.0742 10.437 15.8551 10.4505 15.6434 10.3961C15.4342 10.3422 15.3014 9.94609 15.4536 9.76499C15.5604 9.63825 15.4785 9.35089 15.6248 9.26628C15.7217 9.21018 15.8332 9.3631 15.8836 9.43065C16.0038 9.59159 16.0827 9.78046 16.1546 9.97468C16.2089 10.1211 16.1707 10.3657 16.2875 10.4741Z" fill="#FEC600"/>
<path fill-rule="evenodd" clip-rule="evenodd" d="M14.8468 16.7665C14.427 16.6936 14.0034 16.6048 13.5729 16.6507C13.6241 16.3494 13.466 15.9645 13.6532 15.6946C13.8658 15.3885 14.4277 15.4686 14.7015 15.5484C15.0014 15.6357 15.1946 15.8018 15.1445 16.1762C15.1242 16.3286 15.0777 16.8574 14.8468 16.7665Z" fill="#FEC600"/>
<path fill-rule="evenodd" clip-rule="evenodd" d="M11.8643 34.2935C11.8352 34.4645 11.795 34.4741 11.6559 34.4776C11.3938 34.4843 11.1374 34.5998 10.8796 34.6501C10.9469 34.2545 10.6419 33.9105 10.7544 33.5139C10.8251 33.2654 10.9757 33.2153 11.184 33.2333C11.4266 33.2543 11.6414 33.2203 11.8766 33.1348C11.8297 33.4106 11.9529 33.5212 12.0774 33.7246C12.2105 33.942 11.8615 34.0851 11.8643 34.2935Z" fill="#FEC600"/>
<path fill-rule="evenodd" clip-rule="evenodd" d="M14.9838 15.4185C14.7083 15.3707 14.4275 15.2513 14.1424 15.3079C13.9013 15.3559 13.665 15.4139 13.6196 15.0672C13.5882 14.8278 13.624 14.5785 13.7112 14.355C13.8031 14.1193 13.7916 14.0673 14.0084 14.0718C14.3471 14.0787 14.9002 13.9749 15.1595 14.2705C15.364 14.5037 15.2862 15.2872 14.9838 15.4185Z" fill="#FEC600"/>
<path fill-rule="evenodd" clip-rule="evenodd" d="M15.7959 9.01692C15.5653 8.97687 15.4926 8.64397 15.4572 8.4137C15.4332 8.25785 15.5801 8.10439 15.6077 7.94469C15.6426 7.74127 15.6131 7.53634 15.5916 7.33591C15.5714 7.14709 15.4533 6.35808 15.7333 6.29317C15.7893 6.28022 16.232 6.45434 16.2299 6.46637C16.2104 6.58102 16.1765 6.6936 16.1688 6.81032C16.1606 6.93622 16.2232 7.03125 16.2216 7.15323C16.2186 7.37545 16.1318 7.58577 16.095 7.80252C16.0363 7.61126 15.805 7.64663 15.6636 7.62209C15.767 7.79086 15.9368 7.90211 16.0288 8.07793C16.1022 8.21771 16.1161 8.40009 16.1536 8.55617C16.1872 8.69652 16.2341 8.89234 16.1517 9.02912C16.0745 9.15671 15.8895 9.03314 15.7959 9.01692Z" fill="#FEC600"/>
<path fill-rule="evenodd" clip-rule="evenodd" d="M14.9763 13.8344L13.9541 13.8679C14.0148 13.5111 13.8564 13.117 14.0765 12.7949C14.2563 12.532 14.659 12.5982 14.9003 12.6562C15.174 12.7218 15.4291 12.9716 15.3531 13.3203C15.3177 13.4824 15.1891 13.9262 14.9763 13.8344Z" fill="#FEC600"/>
<path fill-rule="evenodd" clip-rule="evenodd" d="M11.8042 33.0167C11.5505 32.9726 11.2953 32.9209 11.0356 32.9737C10.726 33.0367 10.7063 32.9541 10.688 32.6179C10.6732 32.346 10.6388 31.6939 10.9837 31.6345C11.1778 31.6012 11.3098 31.6175 11.5066 31.5411C11.6429 31.4885 11.9027 31.4789 11.9733 31.6502C12.0505 31.8373 12.1203 32.0791 12.0048 32.2666C11.8612 32.4998 11.7376 32.7488 11.8042 33.0167Z" fill="#FEC600"/>
<path fill-rule="evenodd" clip-rule="evenodd" d="M11.7244 31.3144C11.4823 31.2723 11.2128 31.4041 10.9638 31.3832C10.6258 31.355 10.683 30.8461 10.7014 30.5452C10.7424 29.8693 11.268 30.2049 11.6256 30.0163C11.772 29.9392 12.0535 29.8928 12.0942 30.1355C12.1114 30.2385 12.0728 30.3371 12.0997 30.4415C12.1326 30.5694 12.2127 30.671 12.2779 30.7775C12.1262 30.9005 12.046 30.9015 12.1137 31.1093C12.1868 31.3332 11.8226 31.3315 11.7244 31.3144Z" fill="#FEC600"/>
<path fill-rule="evenodd" clip-rule="evenodd" d="M15.1778 11.0201C14.9575 10.9819 14.7268 10.9792 14.5037 10.9652C14.1044 10.9405 14.4382 10.4757 14.4834 10.2195C14.5663 9.75001 15.0289 9.89506 15.241 10.1364C15.3932 10.3093 15.4418 10.9047 15.1778 11.0201Z" fill="#FEC600"/>
<path fill-rule="evenodd" clip-rule="evenodd" d="M11.8962 29.7615C11.603 29.7106 11.1145 30.0006 10.885 29.7136C10.7843 29.5876 10.764 29.3102 10.7434 29.1441C10.7146 28.9116 10.8586 28.7927 11.0228 28.6637C11.2378 28.4946 11.7851 28.3074 12.0248 28.4175C12.1352 28.4683 12.1793 28.9744 12.1827 29.1036C12.1884 29.329 12.0108 29.5874 11.8962 29.7615Z" fill="#FEC600"/>
<path fill-rule="evenodd" clip-rule="evenodd" d="M12.2572 26.5528C11.9272 26.6169 11.3852 26.7957 11.0621 26.6311C10.8744 26.5355 10.9515 26.1691 10.9242 25.9915C10.8935 25.7919 10.9842 25.5958 11.1167 25.4503C11.3598 25.183 11.8063 25.2729 12.1026 25.2785C12.2022 25.2805 12.4782 25.2537 12.4454 25.4465C12.4069 25.673 12.4716 25.8527 12.6311 25.9844C12.4458 26.0975 12.2968 26.3202 12.2572 26.5528Z" fill="#FEC600"/>
<path fill-rule="evenodd" clip-rule="evenodd" d="M15.2425 9.554C15.0807 9.77338 14.7725 9.67615 14.562 9.7524C14.6152 9.43946 14.5191 9.10662 14.6649 8.81097C14.7787 8.58029 15.0026 8.34819 15.2375 8.49788C15.5019 8.66649 15.5834 9.4015 15.2425 9.554Z" fill="#FEC600"/>
<path fill-rule="evenodd" clip-rule="evenodd" d="M12.0858 28.1058C11.8347 28.1544 11.6319 28.2191 11.3782 28.1835C11.2131 28.1604 11.0902 28.2838 10.9329 28.2795C10.7171 28.2738 10.8591 27.9243 10.8423 27.7994C10.8262 27.6806 10.7646 27.6516 10.7856 27.514C10.8017 27.4079 10.8149 27.2944 10.847 27.1923C10.9791 26.7727 11.7324 26.7509 12.0421 26.8011C12.5256 26.8794 12.1352 27.8155 12.0858 28.1058Z" fill="#FEC600"/>
<path fill-rule="evenodd" clip-rule="evenodd" d="M10.436 35.6283L10.7227 35.5725C10.6756 35.7442 10.7707 35.8335 10.7475 35.9702L10.638 36.6131L10.436 35.6283Z" fill="#FEC600"/>
<path fill-rule="evenodd" clip-rule="evenodd" d="M12.4296 25C12.0686 24.9373 11.5544 24.926 11.2105 25.1048C11.1602 24.6713 10.8869 23.6347 11.5425 23.5998C11.7154 23.5906 12.5534 23.6198 12.518 23.8891C12.4887 24.1122 12.5755 24.2218 12.6034 24.429C12.6173 24.5308 12.5791 24.5886 12.5124 24.6526C12.4305 24.7313 12.4473 24.8955 12.4296 25Z" fill="#FEC600"/>
<path fill-rule="evenodd" clip-rule="evenodd" d="M15.0928 8.26183C14.9232 8.23238 14.7659 8.21659 14.638 8.3822C14.545 8.50226 14.5429 8.68254 14.4592 8.81068C14.3374 8.99705 14.0785 8.791 13.9205 8.81407C13.8219 8.8286 13.668 9.05834 13.6213 8.85875C13.5573 8.58567 13.6658 8.09742 13.8781 7.91635C14.0326 7.78461 14.294 7.77569 14.4771 7.74418C14.6108 7.72097 14.5609 7.84148 14.585 7.93824C14.6803 8.3233 14.7969 7.74738 14.8021 7.64065C14.8181 7.31194 14.7525 6.97905 15.0441 6.76447C15.1783 6.66565 15.3404 6.73349 15.4272 6.87955C15.5007 7.00362 15.4425 7.19315 15.4153 7.32802C15.3715 7.54637 15.4717 7.7267 15.4457 7.92591C15.4224 8.10367 15.203 8.17263 15.0928 8.26183Z" fill="#FEC600"/>
<path fill-rule="evenodd" clip-rule="evenodd" d="M12.5115 23.4312C12.2551 23.3866 11.9429 23.2702 11.6832 23.2881C11.5852 23.2949 11.3396 23.4046 11.279 23.2731C11.1204 22.9294 11.2467 22.309 11.5887 22.1775C11.8454 22.0788 12.3555 21.8233 12.5567 22.1346C12.677 22.3206 12.5931 22.556 12.7387 22.7349C12.916 22.953 12.549 23.2105 12.5115 23.4312Z" fill="#FEC600"/>
<path fill-rule="evenodd" clip-rule="evenodd" d="M10.471 35.4232C10.3097 35.1599 9.84359 34.055 10.4942 34.2408C10.5893 34.2678 10.6759 34.2883 10.6456 34.4208C10.6011 34.6146 10.69 34.7504 10.7339 34.9268C10.7631 35.044 10.7157 35.1815 10.6843 35.2942C10.638 35.459 10.6055 35.4466 10.471 35.4232Z" fill="#FEC600"/>
<path fill-rule="evenodd" clip-rule="evenodd" d="M15.2998 6.50373C15.2328 6.47155 15.2081 6.53367 15.1556 6.56043C15.1427 6.56691 15.1229 6.29136 15.1111 6.25159C15.0537 6.05843 14.8794 5.72395 15.1301 5.57981C15.6102 5.30371 15.6256 6.36868 15.2998 6.50373Z" fill="#FEC600"/>
<path fill-rule="evenodd" clip-rule="evenodd" d="M12.4239 20.1447C12.2235 20.1099 11.8602 19.8825 11.6885 20.1225C11.7334 20.0001 11.6392 19.8693 11.6607 19.7428C11.691 19.565 11.689 19.3659 11.7786 19.2058C11.8579 19.0639 12.0097 19.0342 12.1426 19.044C12.2558 19.0523 12.275 18.9737 12.3697 18.9689C12.4646 18.964 12.7564 18.8995 12.8296 18.9598C12.899 19.017 13.0655 19.0898 13.0434 19.219C13.0163 19.3786 13.0675 19.4483 13.1742 19.5363C13.0396 19.6454 12.8569 19.7723 12.823 19.9717C12.7813 20.2169 12.5843 20.1725 12.4239 20.1447Z" fill="#FEC600"/>
<path fill-rule="evenodd" clip-rule="evenodd" d="M12.6114 21.76C12.3244 21.7906 12.0181 21.9215 11.7338 21.8351C11.4368 21.7448 11.483 21.4024 11.4499 21.1285C11.4233 20.9092 11.6014 20.43 11.7987 20.3572C12.1157 20.2403 12.4452 20.372 12.7659 20.3095C12.7228 20.5622 12.7232 20.7564 12.8076 20.9919C12.9046 21.2629 12.6548 21.5049 12.6114 21.76Z" fill="#FEC600"/>
<path fill-rule="evenodd" clip-rule="evenodd" d="M10.5179 34.0596C10.3374 34.0283 10.0744 34.1395 10.0196 33.8575C9.97993 33.6537 9.98671 33.4488 9.9383 33.244C9.89187 33.0475 9.81474 32.8021 9.86944 32.5936C9.92804 32.3705 10.1201 32.4566 10.2659 32.4515C10.3513 32.4485 10.4931 32.2894 10.4949 32.4714C10.4961 32.6114 10.4384 32.7403 10.474 32.8782C10.5325 33.105 10.6495 33.1196 10.5557 33.3453C10.5097 33.4557 10.511 33.579 10.5556 33.6839C10.6059 33.803 10.5383 33.9401 10.5179 34.0596Z" fill="#FEC600"/>
<path fill-rule="evenodd" clip-rule="evenodd" d="M13.0744 17.4085C12.7266 17.3482 12.3787 17.4778 12.0349 17.5445C12.0995 17.1648 11.9399 16.7789 12.1985 16.4488C12.3856 16.2099 12.649 16.3124 12.8867 16.2262C13.1463 16.1322 13.4481 16.192 13.5006 16.5328C13.5304 16.7253 13.3733 16.8781 13.2811 17.0184C13.2012 17.1403 13.2209 17.3457 13.0744 17.4085Z" fill="#FEC600"/>
<path fill-rule="evenodd" clip-rule="evenodd" d="M13.0272 18.7721C12.7208 18.8317 12.4239 18.859 12.1165 18.8385C11.7545 18.8142 11.8957 18.7133 11.8264 18.405C11.6568 17.6514 12.7632 17.7003 13.1293 17.629C13.0871 17.8769 13.2983 18.6566 13.0272 18.7721Z" fill="#FEC600"/>
<path fill-rule="evenodd" clip-rule="evenodd" d="M13.3185 15.9735C13.008 15.9196 12.5757 16.1991 12.3008 15.9715C12.0283 15.7457 12.2218 15.0418 12.417 14.8078C12.6653 14.5102 13.2384 14.5254 13.3855 14.9113C13.4454 15.0687 13.5526 15.2416 13.5844 15.4091C13.6138 15.564 13.3499 15.789 13.3185 15.9735Z" fill="#FEC600"/>
<path fill-rule="evenodd" clip-rule="evenodd" d="M13.6273 13.0724C13.3878 13.0059 13.1106 13.1288 12.8628 13.0868C12.5258 13.0299 12.6403 12.5511 12.7463 12.2858C12.9079 11.8823 13.3785 11.8749 13.6977 11.9246C14.1008 11.9874 13.8369 12.4011 14.0735 12.6223C13.9732 12.7036 13.8503 12.756 13.7662 12.8625C13.7059 12.9388 13.7606 13.1296 13.6273 13.0724Z" fill="#FEC600"/>
<path fill-rule="evenodd" clip-rule="evenodd" d="M14.5699 7.53753C14.2624 7.48414 14.1216 7.6806 14.0204 7.2381C13.9506 6.93261 14.103 6.75718 14.1977 6.5198C14.281 6.31167 14.5668 6.02701 14.7788 6.03217C14.8799 6.03467 14.8986 6.14879 14.8827 6.24199C14.8556 6.40161 14.9068 6.47129 15.0135 6.55934C14.818 6.71799 14.7588 6.81662 14.6449 7.0442C14.5414 7.25064 14.6081 7.31273 14.5699 7.53753Z" fill="#FEC600"/>
<path fill-rule="evenodd" clip-rule="evenodd" d="M13.3831 14.5075C13.0855 14.4558 12.3391 14.5633 12.4329 14.0222C12.4613 13.8586 12.5293 13.2827 12.7363 13.3181C12.8839 13.3434 13.6552 13.2031 13.7238 13.3767C13.8686 13.7428 13.5724 14.2197 13.3831 14.5075Z" fill="#FEC600"/>
<path fill-rule="evenodd" clip-rule="evenodd" d="M14.1707 10.4232C14.0155 10.3962 13.864 10.335 13.704 10.3419C13.5234 10.3496 13.4131 10.4709 13.3119 10.2327C13.1735 9.90737 13.4088 9.41685 13.68 9.26201C13.812 9.18676 14.3242 8.81533 14.3535 9.2126C14.3661 9.38215 14.4024 9.62093 14.3802 9.78957C14.3505 10.0147 14.2087 10.2 14.1707 10.4232Z" fill="#FEC600"/>
<path fill-rule="evenodd" clip-rule="evenodd" d="M13.944 11.7556C13.7626 11.7241 13.6682 11.6467 13.5061 11.5837C13.344 11.5206 13.0671 11.6547 12.9179 11.7327C12.7281 11.8318 12.6741 12.0093 12.526 12.1562C12.3895 12.2913 12.1654 12.1784 11.9977 12.2321C11.8742 12.2716 11.7368 12.2714 11.676 12.1351C11.5529 11.8589 11.7122 11.942 11.7508 11.6834C11.8095 11.2881 11.9721 11.1093 12.3205 11.1477C12.4507 11.1621 12.5821 11.1792 12.7094 11.2115C12.8593 11.2498 12.8222 11.3059 12.7837 11.4639C12.7292 11.6879 12.926 11.768 12.9769 11.5331C13.0184 11.3418 13.0042 11.1429 13.0487 10.9513C13.1397 10.5585 13.7258 10.4715 14.0142 10.5736C14.392 10.7076 13.9857 11.5103 13.944 11.7556Z" fill="#FEC600"/>
<path fill-rule="evenodd" clip-rule="evenodd" d="M10.4727 32.1524C10.2158 32.1079 9.78849 32.3769 9.71028 32.029C9.64457 31.7355 9.46598 31.3726 9.54799 31.0593C9.61792 30.7918 10.405 30.6712 10.5074 30.9241C10.5707 31.0809 10.6517 31.2842 10.6609 31.459C10.6664 31.5586 10.6294 31.5981 10.5754 31.669C10.48 31.7947 10.4983 32.0023 10.4727 32.1524Z" fill="#FEC600"/>
<path fill-rule="evenodd" clip-rule="evenodd" d="M10.5551 30.5838C10.2828 30.5365 9.9053 30.6769 9.68218 30.4501C9.41793 30.181 9.5554 29.555 9.82279 29.3302C10.0591 29.1317 10.5496 29.0417 10.6207 29.4299C10.6527 29.605 10.783 29.7915 10.7361 29.9806C10.7174 30.0561 10.6447 30.0933 10.6206 30.1666C10.5765 30.3018 10.5787 30.4451 10.5551 30.5838Z" fill="#FEC600"/>
<path fill-rule="evenodd" clip-rule="evenodd" d="M10.5648 28.8971C10.3634 28.9363 10.1644 28.9164 9.96231 28.9634C9.73546 29.0162 9.6614 28.9325 9.64178 28.6884C9.61497 28.3538 9.59651 27.6897 9.96528 27.5462C10.2767 27.425 10.6709 27.4222 10.6366 27.8642C10.6232 28.0368 10.6522 28.1601 10.7105 28.3178C10.7416 28.4019 10.7467 28.4503 10.6778 28.5172C10.5795 28.6122 10.5865 28.7695 10.5648 28.8971Z" fill="#FEC600"/>
<path fill-rule="evenodd" clip-rule="evenodd" d="M13.8839 6.67987C13.8225 6.67878 13.7627 6.66838 13.7044 6.6487C13.7698 6.68735 13.6224 6.44719 13.6321 6.53062C13.6061 6.30843 13.7886 5.94841 13.9552 5.82343C14.1402 5.68475 14.3897 5.81799 14.5794 5.85093C14.4966 5.96304 14.3657 5.92793 14.2728 6.06994C14.1308 6.28756 13.933 6.39138 13.8839 6.67987Z" fill="#FEC600"/>
<path fill-rule="evenodd" clip-rule="evenodd" d="M10.6468 27.3284C10.4305 27.2908 9.64072 27.4831 9.67879 26.964C9.69435 26.753 9.58437 25.9864 9.98558 26.0459C10.1627 26.0721 10.321 25.9603 10.4954 25.9475C10.6891 25.9334 10.6389 26.1568 10.652 26.3006C10.6668 26.4645 10.8305 26.5438 10.8353 26.715C10.8379 26.8131 10.7987 26.8795 10.7422 26.951C10.6592 27.0564 10.6685 27.2015 10.6468 27.3284Z" fill="#FEC600"/>
<path fill-rule="evenodd" clip-rule="evenodd" d="M10.2805 25.6819C10.2193 25.7086 9.96548 26.0337 9.90167 25.8126C9.85061 25.6354 9.8737 25.4093 9.86195 25.2231C9.83944 24.8638 9.93511 24.2837 10.3476 24.3372C10.4629 24.3521 10.7586 24.2357 10.8395 24.3043C10.9015 24.3571 10.8487 24.5195 10.8943 24.6006C10.9683 24.7322 11.0067 24.7911 11.0198 24.9547C11.0452 25.2766 10.805 25.3144 10.7589 25.5852C10.7157 25.8396 10.4175 25.7057 10.2805 25.6819Z" fill="#FEC600"/>
<path fill-rule="evenodd" clip-rule="evenodd" d="M13.3702 8.06814C13.1544 7.94032 13.0949 7.91481 13.1588 7.61338C13.1891 7.46924 13.2379 7.3667 13.3249 7.25461C13.3925 7.16745 13.4174 7.03008 13.4836 6.9556C13.6218 6.80007 13.8605 6.80748 13.8421 7.056C13.827 7.26036 13.8695 7.42798 14.0134 7.54669C13.799 7.72051 13.6281 7.97475 13.3702 8.06814Z" fill="#FEC600"/>
<path fill-rule="evenodd" clip-rule="evenodd" d="M11.3744 21.9676C11.3156 22.0154 11.2466 22.0626 11.2013 22.1287C11.1503 22.2033 11.1641 22.3301 11.1101 22.3912C11.0266 22.4857 10.808 22.4253 10.7107 22.4144C10.5556 22.3969 10.4522 22.4245 10.3007 22.4616C9.99804 22.5355 10.1317 22.0645 10.1735 21.874C10.2203 21.6604 10.2191 21.3416 10.311 21.1481C10.3581 21.049 10.7711 21.0097 10.8826 20.9832C11.1068 20.9299 11.2439 21.1366 11.3026 21.3493C11.3488 21.516 11.5998 21.87 11.3744 21.9676Z" fill="#FEC600"/>
<path fill-rule="evenodd" clip-rule="evenodd" d="M10.7393 24.073C10.4921 24.1623 10.2335 24.0639 9.98643 24.1533C10.0466 23.7997 9.92701 23.4519 10.0159 23.1052C10.1326 22.6508 10.4733 22.5397 10.8573 22.5879C11.3078 22.6443 10.876 22.975 11.0374 23.264C11.1172 23.407 11.1497 23.4886 11.0577 23.6439C10.9797 23.7758 10.8786 24.0124 10.7393 24.073Z" fill="#FEC600"/>
<path fill-rule="evenodd" clip-rule="evenodd" d="M13.1084 9.60556C12.737 9.5411 12.3367 9.52454 12.1238 9.96222C12.1479 9.82043 12.1324 9.59803 12.2977 9.57789C12.4057 9.56468 12.4605 9.33852 12.4873 9.2463C12.5828 8.91714 12.8218 8.49222 13.0873 8.29452C13.3779 8.0785 13.4582 8.37131 13.4487 8.62798C13.4443 8.74723 13.5183 8.9296 13.4644 9.04213C13.3784 9.22147 13.2185 9.43826 13.1084 9.60556Z" fill="#FEC600"/>
<path fill-rule="evenodd" clip-rule="evenodd" d="M11.2798 20.8956C11.0338 20.7499 10.5641 20.914 10.434 20.5845C10.323 20.3037 10.5292 19.7981 10.76 19.6499C10.8875 19.5679 11.4887 19.3252 11.49 19.673C11.4907 19.8362 11.5118 20.0431 11.4937 20.2047C11.4667 20.4494 11.3208 20.6544 11.2798 20.8956Z" fill="#FEC600"/>
<path fill-rule="evenodd" clip-rule="evenodd" d="M12.5059 10.9782C12.2127 10.9273 11.9929 10.9911 12.0975 10.5532C12.1927 10.1548 12.393 9.80037 12.7888 9.76542C13.4429 9.7079 13.1337 11.0872 12.5059 10.9782Z" fill="#FEC600"/>
<path fill-rule="evenodd" clip-rule="evenodd" d="M11.4343 19.4451C11.2323 19.4101 11.03 19.3223 10.8207 19.3473C10.6698 19.3653 10.5528 19.4469 10.5337 19.2212C10.5036 18.8644 10.5391 18.4011 10.8299 18.1689C11.0407 18.0007 11.6523 17.9267 11.653 18.3182C11.6532 18.46 11.6206 18.7178 11.7007 18.8129C11.8112 18.944 11.4895 19.3319 11.4343 19.4451Z" fill="#FEC600"/>
<path fill-rule="evenodd" clip-rule="evenodd" d="M11.6959 17.9077C11.4766 17.8697 11.2726 17.8089 11.0512 17.8693C10.8918 17.9128 10.66 17.9038 10.644 17.6732C10.6122 17.2114 10.7906 16.939 11.1688 16.8163C11.3377 16.7615 11.9485 16.5195 11.8815 16.9104C11.8454 17.122 11.8343 17.2375 11.8758 17.4379C11.9056 17.5826 11.8342 17.8483 11.6959 17.9077Z" fill="#FEC600"/>
<path fill-rule="evenodd" clip-rule="evenodd" d="M11.9224 16.5754C11.6671 16.5311 11.3804 16.6268 11.1208 16.6229C10.6642 16.6161 10.8606 16.0787 11.0016 15.7347C11.1288 15.4243 11.4728 15.2575 11.7587 15.3416C12.1565 15.4587 12.1239 16.2692 11.9224 16.5754Z" fill="#FEC600"/>
<path fill-rule="evenodd" clip-rule="evenodd" d="M12.481 13.2953C12.3726 13.4601 12.3267 13.6628 12.1161 13.6723C12.0139 13.677 11.9147 13.6487 11.814 13.6394C11.7028 13.6291 11.5997 13.6884 11.4923 13.6789C11.2188 13.6545 11.3567 13.1043 11.4138 12.9314C11.5553 12.5026 11.9433 12.3817 12.3071 12.4235C12.4583 12.4408 12.7231 13.1903 12.481 13.2953Z" fill="#FEC600"/>
<path fill-rule="evenodd" clip-rule="evenodd" d="M11.9701 15.2115C11.6997 15.1646 11.4205 15.0739 11.145 15.1737C11.1916 15.0254 11.0226 14.9541 11.0135 14.8171C11.0035 14.6652 11.0421 14.4614 11.1089 14.3245C11.1746 14.1902 11.2556 13.9709 11.3964 13.9252C11.5289 13.8824 11.6689 13.926 11.8001 13.8784C12.2152 13.7281 12.2283 13.9767 12.2739 14.345C12.3003 14.557 12.3257 14.532 12.201 14.7098C12.0851 14.8758 12.0059 15.0015 11.9701 15.2115Z" fill="#FEC600"/>
<path fill-rule="evenodd" clip-rule="evenodd" d="M9.4208 29.6482C9.28773 29.4847 9.2125 29.1707 9.26737 28.9476C9.30229 28.8048 9.19785 28.485 9.30718 28.3758C9.44753 28.2355 9.4496 28.8246 9.46409 28.8601C9.51084 28.9747 9.57862 29.0962 9.57788 29.229C9.57697 29.3928 9.43371 29.4899 9.4208 29.6482Z" fill="#FEC600"/>
<path fill-rule="evenodd" clip-rule="evenodd" d="M9.39551 28.1664C9.10345 28.1756 9.2021 27.0202 9.25275 26.8314C9.27319 26.7551 9.30539 26.684 9.38649 26.6759C9.45857 26.6686 9.44301 26.9432 9.49565 27.0131C9.74475 27.3434 9.45733 27.8031 9.39551 28.1664Z" fill="#FEC600"/>
<path fill-rule="evenodd" clip-rule="evenodd" d="M12.7572 7.32828C12.5862 7.18714 12.5402 6.95334 12.4872 6.73252C12.4168 6.43903 12.2511 6.18217 12.2105 5.87852C12.1184 5.18799 12.4266 4.47484 12.3455 3.77441C12.4196 4.07264 12.479 4.38517 12.6359 4.64178C12.6959 4.73955 12.6115 4.85774 12.6166 4.96216C12.6239 5.11102 12.7314 5.24172 12.7946 5.36229C12.8555 5.47853 12.8738 5.60637 12.8937 5.73898C12.921 5.92156 13.0146 6.04758 13.0678 6.21609C13.1894 6.60022 12.9153 7.00384 12.7572 7.32828Z" fill="#438E14"/>
<path fill-rule="evenodd" clip-rule="evenodd" d="M9.31565 26.464L9.27319 25.0848C9.59653 25.22 9.82387 25.2191 9.72605 25.694C9.68914 25.8723 9.61275 26.0143 9.55697 26.1837C9.49656 26.3663 9.52643 26.5006 9.31565 26.464Z" fill="#FEC600"/>
<path fill-rule="evenodd" clip-rule="evenodd" d="M9.64993 25.0446C9.4552 24.8841 9.27926 24.809 9.35904 24.4882C9.40199 24.3149 9.45487 24.1412 9.46513 23.9614C9.47068 23.8666 9.38353 23.623 9.47076 23.5513C9.53746 23.4965 9.81346 23.5411 9.79153 23.6699C9.75595 23.8794 9.81305 24.0869 9.77614 24.3038L9.64993 25.0446Z" fill="#FEC600"/>
<path fill-rule="evenodd" clip-rule="evenodd" d="M9.74904 23.3736C9.35295 23.3048 9.57739 23.0071 9.60826 22.6567C9.62241 22.4957 9.51905 22.3988 9.54495 22.237C9.56945 22.0848 9.63491 21.9253 9.72313 21.8044C9.93698 21.5108 9.96942 22.4239 10.0573 22.5674C10.0701 22.5879 9.84421 22.798 9.83585 22.8505C9.80705 23.028 9.97124 23.2783 9.74904 23.3736Z" fill="#FEC600"/>
<path fill-rule="evenodd" clip-rule="evenodd" d="M11.7627 9.37162C11.678 9.03067 11.6873 8.78589 11.478 8.50318C11.2974 8.25921 11.1897 7.95981 11.231 7.63041C11.275 7.27983 11.5408 7.02307 11.584 6.67375C11.6098 6.46535 11.6793 6.2592 11.6899 6.0497C11.6998 5.85065 11.6562 5.65383 11.69 5.45471C11.6589 5.6377 11.7461 5.78764 11.8241 5.93259C11.9226 6.11587 11.916 6.23785 11.9071 6.44862C11.8987 6.64778 11.9285 6.95405 12.0619 7.09444C12.214 7.25453 12.3886 7.27556 12.4442 7.53933C12.4676 7.64991 12.5768 7.88188 12.5278 7.982C12.4691 8.10195 12.3785 8.20286 12.2967 8.30305C12.1129 8.52819 12.024 9.25959 11.7627 9.37162Z" fill="#438E14"/>
<path fill-rule="evenodd" clip-rule="evenodd" d="M9.97331 21.5131C9.97455 21.6109 9.91637 21.6436 9.84677 21.5976C9.72321 21.5159 9.72818 21.3544 9.74895 21.2064C9.77179 21.0431 9.84404 20.1089 10.022 20.1403C10.3475 20.1982 10.2005 20.3518 10.228 20.6225C10.2424 20.7653 10.3047 20.8573 10.2312 21.0033C10.1454 21.1734 10.007 21.3151 9.97331 21.5131Z" fill="#FEC600"/>
<path fill-rule="evenodd" clip-rule="evenodd" d="M9.94873 20.0313L10.1406 18.9038C10.2702 19.0107 10.5424 19.5143 10.4487 19.7094C10.347 19.9214 10.1516 20.0665 9.94873 20.0313Z" fill="#FEC600"/>
<path fill-rule="evenodd" clip-rule="evenodd" d="M11.8572 10.4434C11.8295 10.6062 11.7207 10.8424 11.8598 10.9714L11.6628 11.0427L11.8572 10.4434Z" fill="#FEC600"/>
<path fill-rule="evenodd" clip-rule="evenodd" d="M10.7708 15.7421C10.5824 15.7597 10.8025 15.0127 10.8207 14.9065C10.9257 15.0046 10.8471 15.2729 11.0376 15.2607C10.8751 15.3315 10.8005 15.5679 10.7708 15.7421Z" fill="#FEC600"/>
<path fill-rule="evenodd" clip-rule="evenodd" d="M10.2653 18.7143C10.0705 18.5401 10.3458 17.6983 10.3849 17.4688C10.6435 17.7104 10.428 18.4671 10.2653 18.7143Z" fill="#FEC600"/>
<path fill-rule="evenodd" clip-rule="evenodd" d="M10.4368 17.1615L10.6461 15.9315C10.6047 16.1747 10.6263 16.3709 10.6841 16.6025C10.7105 16.7088 10.6017 16.7352 10.5859 16.828C10.5648 16.9523 10.5639 17.1073 10.4368 17.1615Z" fill="#FEC600"/>
<path fill-rule="evenodd" clip-rule="evenodd" d="M11.2514 11.2879L11.2687 11.1854C11.1986 11.216 11.1429 11.287 11.1441 11.3749C11.1152 10.7584 10.9134 10.2476 10.75 9.66982C10.6639 9.36558 10.6472 9.05255 10.57 8.74788C10.4886 8.42714 10.3098 8.13312 10.3705 7.77685L10.5644 6.63709C10.5893 6.49072 10.6866 6.3779 10.7249 6.23695C10.7715 6.06623 10.7972 5.9311 10.8894 5.77997C11.2265 5.22788 11.6403 4.65843 11.7543 3.98865C11.8255 4.6049 11.4612 5.27511 11.4116 5.89697C11.3845 6.23403 11.4629 6.4722 11.3229 6.80427C11.1741 7.1572 11.0173 7.51705 11.0068 7.91129C10.999 8.19951 11.0873 8.43953 11.2411 8.6548C11.4401 8.93316 11.4584 9.18624 11.5423 9.52259C11.6162 9.81881 11.482 9.96846 11.4043 10.2494C11.3105 10.5881 11.31 10.9431 11.2514 11.2879Z" fill="#438E14"/>
</svg>
