<svg width="75" height="75" viewBox="0 0 75 75" fill="none" xmlns="http://www.w3.org/2000/svg">
<path d="M9.76142 30.5662L9.76049 30.5661C7.47021 30.14 3.69983 29.4386 0.400295 27.9554L0.401385 28.3937M9.76142 30.5662L74.6 42.82C74.6002 43.1524 74.4183 43.5572 73.9553 44.0282C73.4959 44.4955 72.7989 44.9869 71.87 45.4849C70.0145 46.4799 67.306 47.4639 63.9317 48.3339C57.1883 50.0727 47.8538 51.3391 37.5311 51.3531M9.76142 30.5662C17.1604 31.942 26.9335 32.7013 37.2715 32.7013H37.5316L9.76142 30.5662ZM0.401385 28.3937C0.267171 28.3346 0.133645 28.2743 0.000933869 28.2128L0.037501 42.9151C0.0421884 46.754 16.6893 51.7531 37.2715 51.7531H37.5316V51.3531H37.5311M0.401385 28.3937C3.70476 29.8464 7.42481 30.5384 9.67282 30.9566L9.68826 30.9595L9.6883 30.9595C17.1184 32.341 26.9173 33.1013 37.2715 33.1013H37.5316H37.5321C47.952 33.0896 57.8072 32.3105 65.2913 30.9055L65.2175 30.5123L65.2913 30.9055L65.3049 30.9029C67.5538 30.4805 71.259 29.7847 74.5617 28.3411M0.401385 28.3937L0.4375 42.9141L0.437501 42.9146C0.437905 43.2456 0.619192 43.6483 1.07972 44.1165C1.5364 44.5808 2.22896 45.0687 3.15178 45.563C4.99516 46.5503 7.68549 47.5254 11.0374 48.3862C17.7362 50.1065 27.0098 51.3531 37.2715 51.3531H37.272H37.2725H37.273H37.2735H37.274H37.2745H37.2751H37.2756H37.2761H37.2766H37.2771H37.2776H37.2781H37.2786H37.2791H37.2796H37.2801H37.2806H37.2812H37.2817H37.2822H37.2827H37.2832H37.2837H37.2842H37.2847H37.2852H37.2857H37.2862H37.2867H37.2872H37.2878H37.2883H37.2888H37.2893H37.2898H37.2903H37.2908H37.2913H37.2918H37.2923H37.2928H37.2933H37.2939H37.2944H37.2949H37.2954H37.2959H37.2964H37.2969H37.2974H37.2979H37.2984H37.2989H37.2994H37.2999H37.3005H37.301H37.3015H37.302H37.3025H37.303H37.3035H37.304H37.3045H37.305H37.3055H37.306H37.3066H37.3071H37.3076H37.3081H37.3086H37.3091H37.3096H37.3101H37.3106H37.3111H37.3116H37.3121H37.3127H37.3132H37.3137H37.3142H37.3147H37.3152H37.3157H37.3162H37.3167H37.3172H37.3177H37.3182H37.3187H37.3193H37.3198H37.3203H37.3208H37.3213H37.3218H37.3223H37.3228H37.3233H37.3238H37.3243H37.3248H37.3254H37.3259H37.3264H37.3269H37.3274H37.3279H37.3284H37.3289H37.3294H37.3299H37.3304H37.3309H37.3315H37.332H37.3325H37.333H37.3335H37.334H37.3345H37.335H37.3355H37.336H37.3365H37.337H37.3375H37.3381H37.3386H37.3391H37.3396H37.3401H37.3406H37.3411H37.3416H37.3421H37.3426H37.3431H37.3436H37.3442H37.3447H37.3452H37.3457H37.3462H37.3467H37.3472H37.3477H37.3482H37.3487H37.3492H37.3497H37.3503H37.3508H37.3513H37.3518H37.3523H37.3528H37.3533H37.3538H37.3543H37.3548H37.3553H37.3558H37.3563H37.3569H37.3574H37.3579H37.3584H37.3589H37.3594H37.3599H37.3604H37.3609H37.3614H37.3619H37.3624H37.363H37.3635H37.364H37.3645H37.365H37.3655H37.366H37.3665H37.367H37.3675H37.368H37.3685H37.369H37.3696H37.3701H37.3706H37.3711H37.3716H37.3721H37.3726H37.3731H37.3736H37.3741H37.3746H37.3751H37.3757H37.3762H37.3767H37.3772H37.3777H37.3782H37.3787H37.3792H37.3797H37.3802H37.3807H37.3812H37.3818H37.3823H37.3828H37.3833H37.3838H37.3843H37.3848H37.3853H37.3858H37.3863H37.3868H37.3873H37.3878H37.3884H37.3889H37.3894H37.3899H37.3904H37.3909H37.3914H37.3919H37.3924H37.3929H37.3934H37.3939H37.3945H37.395H37.3955H37.396H37.3965H37.397H37.3975H37.398H37.3985H37.399H37.3995H37.4H37.4006H37.4011H37.4016H37.4021H37.4026H37.4031H37.4036H37.4041H37.4046H37.4051H37.4056H37.4061H37.4066H37.4072H37.4077H37.4082H37.4087H37.4092H37.4097H37.4102H37.4107H37.4112H37.4117H37.4122H37.4127H37.4133H37.4138H37.4143H37.4148H37.4153H37.4158H37.4163H37.4168H37.4173H37.4178H37.4183H37.4188H37.4193H37.4199H37.4204H37.4209H37.4214H37.4219H37.4224H37.4229H37.4234H37.4239H37.4244H37.4249H37.4254H37.426H37.4265H37.427H37.4275H37.428H37.4285H37.429H37.4295H37.43H37.4305H37.431H37.4315H37.4321H37.4326H37.4331H37.4336H37.4341H37.4346H37.4351H37.4356H37.4361H37.4366H37.4371H37.4376H37.4381H37.4387H37.4392H37.4397H37.4402H37.4407H37.4412H37.4417H37.4422H37.4427H37.4432H37.4437H37.4442H37.4448H37.4453H37.4458H37.4463H37.4468H37.4473H37.4478H37.4483H37.4488H37.4493H37.4498H37.4503H37.4509H37.4514H37.4519H37.4524H37.4529H37.4534H37.4539H37.4544H37.4549H37.4554H37.4559H37.4564H37.4569H37.4575H37.458H37.4585H37.459H37.4595H37.46H37.4605H37.461H37.4615H37.462H37.4625H37.463H37.4636H37.4641H37.4646H37.4651H37.4656H37.4661H37.4666H37.4671H37.4676H37.4681H37.4686H37.4691H37.4697H37.4702H37.4707H37.4712H37.4717H37.4722H37.4727H37.4732H37.4737H37.4742H37.4747H37.4752H37.4757H37.4763H37.4768H37.4773H37.4778H37.4783H37.4788H37.4793H37.4798H37.4803H37.4808H37.4813H37.4818H37.4824H37.4829H37.4834H37.4839H37.4844H37.4849H37.4854H37.4859H37.4864H37.4869H37.4874H37.4879H37.4884H37.489H37.4895H37.49H37.4905H37.491H37.4915H37.492H37.4925H37.493H37.4935H37.494H37.4945H37.4951H37.4956H37.4961H37.4966H37.4971H37.4976H37.4981H37.4986H37.4991H37.4996H37.5001H37.5006H37.5012H37.5017H37.5022H37.5027H37.5032H37.5037H37.5042H37.5047H37.5052H37.5057H37.5062H37.5067H37.5073H37.5078H37.5083H37.5088H37.5093H37.5098H37.5103H37.5108H37.5113H37.5118H37.5123H37.5128H37.5133H37.5139H37.5144H37.5149H37.5154H37.5159H37.5164H37.5169H37.5174H37.5179H37.5184H37.5189H37.5194H37.52H37.5205H37.521H37.5215H37.522H37.5225H37.523H37.5235H37.524H37.5245H37.525H37.5255H37.5261H37.5266H37.5271H37.5276H37.5281H37.5286H37.5291H37.5296H37.5301H37.5306H37.5311M37.5311 51.3531L74.5617 28.3411M74.5617 28.3411L74.6 42.8195L74.5617 28.3411ZM0.437499 19.7607L0.437501 19.7614C0.437903 20.0908 0.617714 20.4859 1.07633 20.9411C1.5317 21.393 2.22308 21.8641 3.14572 22.3381C4.98864 23.285 7.67879 24.206 11.0315 25.0124C17.7315 26.6241 27.0069 27.7616 37.2715 27.7616H37.272H37.2725H37.273H37.2735H37.274H37.2745H37.2751H37.2756H37.2761H37.2766H37.2771H37.2776H37.2781H37.2786H37.2791H37.2796H37.2801H37.2806H37.2812H37.2817H37.2822H37.2827H37.2832H37.2837H37.2842H37.2847H37.2852H37.2857H37.2862H37.2867H37.2872H37.2878H37.2883H37.2888H37.2893H37.2898H37.2903H37.2908H37.2913H37.2918H37.2923H37.2928H37.2933H37.2939H37.2944H37.2949H37.2954H37.2959H37.2964H37.2969H37.2974H37.2979H37.2984H37.2989H37.2994H37.2999H37.3005H37.301H37.3015H37.302H37.3025H37.303H37.3035H37.304H37.3045H37.305H37.3055H37.306H37.3066H37.3071H37.3076H37.3081H37.3086H37.3091H37.3096H37.3101H37.3106H37.3111H37.3116H37.3121H37.3127H37.3132H37.3137H37.3142H37.3147H37.3152H37.3157H37.3162H37.3167H37.3172H37.3177H37.3182H37.3187H37.3193H37.3198H37.3203H37.3208H37.3213H37.3218H37.3223H37.3228H37.3233H37.3238H37.3243H37.3248H37.3254H37.3259H37.3264H37.3269H37.3274H37.3279H37.3284H37.3289H37.3294H37.3299H37.3304H37.3309H37.3315H37.332H37.3325H37.333H37.3335H37.334H37.3345H37.335H37.3355H37.336H37.3365H37.337H37.3375H37.3381H37.3386H37.3391H37.3396H37.3401H37.3406H37.3411H37.3416H37.3421H37.3426H37.3431H37.3436H37.3442H37.3447H37.3452H37.3457H37.3462H37.3467H37.3472H37.3477H37.3482H37.3487H37.3492H37.3497H37.3503H37.3508H37.3513H37.3518H37.3523H37.3528H37.3533H37.3538H37.3543H37.3548H37.3553H37.3558H37.3563H37.3569H37.3574H37.3579H37.3584H37.3589H37.3594H37.3599H37.3604H37.3609H37.3614H37.3619H37.3624H37.363H37.3635H37.364H37.3645H37.365H37.3655H37.366H37.3665H37.367H37.3675H37.368H37.3685H37.369H37.3696H37.3701H37.3706H37.3711H37.3716H37.3721H37.3726H37.3731H37.3736H37.3741H37.3746H37.3751H37.3757H37.3762H37.3767H37.3772H37.3777H37.3782H37.3787H37.3792H37.3797H37.3802H37.3807H37.3812H37.3818H37.3823H37.3828H37.3833H37.3838H37.3843H37.3848H37.3853H37.3858H37.3863H37.3868H37.3873H37.3878H37.3884H37.3889H37.3894H37.3899H37.3904H37.3909H37.3914H37.3919H37.3924H37.3929H37.3934H37.3939H37.3945H37.395H37.3955H37.396H37.3965H37.397H37.3975H37.398H37.3985H37.399H37.3995H37.4H37.4006H37.4011H37.4016H37.4021H37.4026H37.4031H37.4036H37.4041H37.4046H37.4051H37.4056H37.4061H37.4066H37.4072H37.4077H37.4082H37.4087H37.4092H37.4097H37.4102H37.4107H37.4112H37.4117H37.4122H37.4127H37.4133H37.4138H37.4143H37.4148H37.4153H37.4158H37.4163H37.4168H37.4173H37.4178H37.4183H37.4188H37.4193H37.4199H37.4204H37.4209H37.4214H37.4219H37.4224H37.4229H37.4234H37.4239H37.4244H37.4249H37.4254H37.426H37.4265H37.427H37.4275H37.428H37.4285H37.429H37.4295H37.43H37.4305H37.431H37.4315H37.4321H37.4326H37.4331H37.4336H37.4341H37.4346H37.4351H37.4356H37.4361H37.4366H37.4371H37.4376H37.4381H37.4387H37.4392H37.4397H37.4402H37.4407H37.4412H37.4417H37.4422H37.4427H37.4432H37.4437H37.4442H37.4448H37.4453H37.4458H37.4463H37.4468H37.4473H37.4478H37.4483H37.4488H37.4493H37.4498H37.4503H37.4509H37.4514H37.4519H37.4524H37.4529H37.4534H37.4539H37.4544H37.4549H37.4554H37.4559H37.4564H37.4569H37.4575H37.458H37.4585H37.459H37.4595H37.46H37.4605H37.461H37.4615H37.462H37.4625H37.463H37.4636H37.4641H37.4646H37.4651H37.4656H37.4661H37.4666H37.4671H37.4676H37.4681H37.4686H37.4691H37.4697H37.4702H37.4707H37.4712H37.4717H37.4722H37.4727H37.4732H37.4737H37.4742H37.4747H37.4752H37.4757H37.4763H37.4768H37.4773H37.4778H37.4783H37.4788H37.4793H37.4798H37.4803H37.4808H37.4813H37.4818H37.4824H37.4829H37.4834H37.4839H37.4844H37.4849H37.4854H37.4859H37.4864H37.4869H37.4874H37.4879H37.4884H37.489H37.4895H37.49H37.4905H37.491H37.4915H37.492H37.4925H37.493H37.4935H37.494H37.4945H37.4951H37.4956H37.4961H37.4966H37.4971H37.4976H37.4981H37.4986H37.4991H37.4996H37.5001H37.5006H37.5012H37.5017H37.5022H37.5027H37.5032H37.5037H37.5042H37.5047H37.5052H37.5057H37.5062H37.5067H37.5073H37.5078H37.5083H37.5088H37.5093H37.5098H37.5103H37.5108H37.5113H37.5118H37.5123H37.5128H37.5133H37.5139H37.5144H37.5149H37.5154H37.5159H37.5164H37.5169H37.5174H37.5179H37.5184H37.5189H37.5194H37.52H37.5205H37.521H37.5215H37.522H37.5225H37.523H37.5235H37.524H37.5245H37.525H37.5255H37.5261H37.5266H37.5271H37.5276H37.5281H37.5286H37.5291H37.5296H37.5301H37.5306H37.5311C47.8566 27.7476 57.193 26.5902 63.9376 24.9604C67.3127 24.1449 70.0211 23.2152 71.8761 22.2611C72.8048 21.7834 73.5007 21.3091 73.9587 20.8543C74.4198 20.3966 74.6001 19.9998 74.6 19.6694L0.437499 19.7607ZM0.437499 19.7607L0.400002 7.02561C0.400001 7.02555 0.400001 7.02548 0.400001 7.02541C0.39948 6.70041 0.574331 6.32927 1.02866 5.91475C1.48215 5.501 2.1741 5.0827 3.10269 4.67251C4.95703 3.85337 7.66598 3.10472 11.0448 2.47111C17.7957 1.20514 27.1406 0.412881 37.4757 0.4H37.4759H37.4765H37.477H37.4775H37.4781H37.4786H37.4791H37.4797H37.4802H37.4807H37.4813H37.4818H37.4823H37.4829H37.4834H37.484H37.4845H37.485H37.4855H37.4861H37.4866H37.4872H37.4877H37.4882H37.4888H37.4893H37.4898H37.4903H37.4909H37.4914H37.4919H37.4925H37.493H37.4935H37.4941H37.4946H37.4951H37.4957H37.4962H37.4967H37.4973H37.4978H37.4983H37.4989H37.4994H37.4999H37.5005H37.501H37.5015H37.502H37.5026H37.5031H37.5036H37.5042H37.5047H37.5052H37.5058H37.5063H37.5068H37.5074H37.5079H37.5084H37.5089H37.5095H37.51H37.5105H37.5111H37.5116H37.5121H37.5126H37.5132H37.5137H37.5142H37.5148H37.5153H37.5158H37.5163H37.5169H37.5174H37.5179H37.5185H37.519H37.5195H37.52H37.5206H37.5211H37.5216H37.5222H37.5227H37.5232H37.5237H37.5243H37.5248H37.5253H37.5258H37.5264H37.5269H37.5274H37.528H37.5285H37.529H37.5295H37.5301H37.5306H37.5311H37.5316H37.5322H37.5327H37.5332H37.5337H37.5343H37.5348H37.5353H37.5359H37.5364H37.5369H37.5374H37.538H37.5385H37.539H37.5395H37.5401H37.5406H37.5411H37.5416H37.5422H37.5427H37.5432H37.5437H37.5443H37.5448H37.5453H37.5458H37.5464H37.5469H37.5474H37.5479H37.5485H37.549H37.5495H37.55H37.5506H37.5511H37.5516H37.5521H37.5527H37.5532H37.5537H37.5542H37.5548H37.5553H37.5558H37.5563H37.5569H37.5574H37.5579H37.5584H37.5589H37.5595H37.56H37.5605H37.561H37.5616H37.5621H37.5626H37.5631H37.5637H37.5642H37.5647H37.5652H37.5658H37.5663H37.5668H37.5673H37.5678H37.5684H37.5689H37.5694H37.5699H37.5705H37.571H37.5715H37.572H37.5726H37.5731H37.5736H37.5741H37.5746H37.5752H37.5757H37.5762H37.5767H37.5773H37.5778H37.5783H37.5788H37.5794H37.5799H37.5804H37.5809H37.5814H37.582H37.5825H37.583H37.5835H37.5841H37.5846H37.5851H37.5856H37.5861H37.5867H37.5872H37.5877H37.5882H37.5888H37.5893H37.5898H37.5903H37.5908H37.5914H37.5919H37.5924H37.5929H37.5935H37.594H37.5945H37.595H37.5955H37.5961H37.5966H37.5971H37.5976H37.5982H37.5987H37.5992H37.5997H37.6002H37.6008H37.6013H37.6018H37.6023H37.6028H37.6034H37.6039H37.6044H37.6049H37.6055H37.606H37.6065H37.607H37.6075H37.6081H37.6086H37.6091H37.6096H37.6102H37.6107H37.6112H37.6117H37.6122H37.6128H37.6133H37.6138H37.6143H37.6148H37.6154H37.6159H37.6164H37.6169H37.6175H37.618H37.6185H37.619H37.6195H37.6201H37.6206H37.6211H37.6216H37.6222H37.6227H37.6232H37.6237H37.6242H37.6248H37.6253H37.6258H37.6263H37.6269H37.6274H37.6279H37.6284H37.6289H37.6295H37.63H37.6305H37.631H37.6316H37.6321H37.6326H37.6331H37.6336H37.6342H37.6347H37.6352H37.6357H37.6363H37.6368H37.6373H37.6378H37.6383H37.6389H37.6394H37.6399H37.6404H37.641H37.6415H37.642H37.6425H37.643H37.6436H37.6441H37.6446H37.6451H37.6457H37.6462H37.6467H37.6472H37.6478H37.6483H37.6488H37.6493H37.6498H37.6504H37.6509H37.6514H37.6519H37.6525H37.653H37.6535H37.654H37.6546H37.6551H37.6556H37.6561H37.6566H37.6572H37.6577H37.6582H37.6587H37.6593H37.6598H37.6603H37.6608H37.6614H37.6619H37.6624H37.6629H37.6635H37.664H37.6645H37.665H37.6656H37.6661H37.6666H37.6671H37.6676H37.6682H37.6687H37.6692H37.6697H37.6703H37.6708H37.6713H37.6718H37.6724H37.6729H37.6734H37.6739H37.6745H37.675H37.6755H37.676H37.6766H37.6771H37.6776H37.6781H37.6787H37.6792H37.6797H37.6802H37.6808H37.6813H37.6818H37.6824H37.6829H37.6834H37.6839H37.6845H37.685H37.6855H37.686H37.6866H37.6871H37.6876H37.6881H37.6887H37.6892H37.6897H37.6902H37.6908H37.6913H37.6918H37.6924H37.6929H37.6934H37.6939H37.6945H37.695H37.6955H37.696H37.6966H37.6971H37.6976H37.6982H37.6987H37.6992H37.6997H37.7003H37.7008H37.7013H37.7018H37.7024H37.7029H37.7034H37.704H37.7045H37.705H37.7055H37.7061H37.7066H37.7071H37.7077H37.7082H37.7087H37.7093H37.7098H37.7103H37.7108H37.7114H37.7119H37.7124H37.713H37.7135H37.714H37.7146H37.7151H37.7156H37.7161H37.7167H37.7172H37.7177H37.7183H37.7188H37.7193H37.7199H37.7204H37.7209H37.7214H37.722H37.7225H37.723H37.7236H37.7241H37.7246H37.7252H37.7257H37.7262H37.7268H37.7273H37.7278H37.7284H37.7289H37.7294H37.73H37.7305H37.731H37.7316H37.7321H37.7326H37.7332H37.7337H37.7342H37.7348H37.7353H37.7358H37.7364H37.7369H37.7374H37.738H37.7385H37.739H37.7396H37.7401H37.7406H37.7412H37.7417H37.7422H37.7428H37.7433H37.7438H37.7444H37.7449C48.0157 0.4 57.2927 1.17239 63.9932 2.41994C67.3468 3.04432 70.0348 3.78414 71.8753 4.59581C72.7969 5.00226 73.4837 5.41719 73.9341 5.82804C74.3853 6.23962 74.5598 6.60891 74.5602 6.93308V6.93385L74.6 19.6686L0.437499 19.7607ZM37.5298 56.6951H37.5293H37.2692H37.5298ZM37.5298 56.6951C47.9624 56.681 57.819 55.4638 65.289 54.061L65.3025 54.0585C67.5514 53.6361 71.2567 52.9402 74.5615 51.4945M37.5298 56.6951L74.5615 51.4945M74.5615 51.4945L74.5977 67.9741L74.5615 51.4945ZM73.9686 69.086C74.4228 68.6714 74.5979 68.3 74.5977 67.9745L73.9686 69.086ZM73.9686 69.086C73.5151 69.4999 72.8233 69.9183 71.895 70.3285M73.9686 69.086L71.895 70.3285M71.895 70.3285C70.0413 71.1477 67.3333 71.8963 63.9555 72.5298M71.895 70.3285L63.9555 72.5298M63.9555 72.5298C57.2066 73.7955 47.864 74.5871 37.5288 74.6M63.9555 72.5298L37.5288 74.6M37.5288 74.6H37.5283M37.5288 74.6H37.5283M37.5283 74.6H37.5277M37.5283 74.6H37.5277M37.5277 74.6H37.5272M37.5277 74.6H37.5272M37.5272 74.6H37.5267M37.5272 74.6H37.5267M37.5267 74.6H37.5262M37.5267 74.6H37.5262M37.5262 74.6H37.5256M37.5262 74.6H37.5256M37.5256 74.6H37.5251M37.5256 74.6H37.5251M37.5251 74.6H37.5246M37.5251 74.6H37.5246M37.5246 74.6H37.5241M37.5246 74.6H37.5241M37.5241 74.6H37.5236M37.5241 74.6H37.5236M37.5236 74.6H37.523M37.5236 74.6H37.523M37.523 74.6H37.5225M37.523 74.6H37.5225M37.5225 74.6H37.522M37.5225 74.6H37.522M37.522 74.6H37.5215M37.522 74.6H37.5215M37.5215 74.6H37.521M37.5215 74.6H37.521M37.521 74.6H37.5204M37.521 74.6H37.5204M37.5204 74.6H37.5199M37.5204 74.6H37.5199M37.5199 74.6H37.5194M37.5199 74.6H37.5194M37.5194 74.6H37.5189M37.5194 74.6H37.5189M37.5189 74.6H37.5184M37.5189 74.6H37.5184M37.5184 74.6H37.5178M37.5184 74.6H37.5178M37.5178 74.6H37.5173M37.5178 74.6H37.5173M37.5173 74.6H37.5168M37.5173 74.6H37.5168M37.5168 74.6H37.5163M37.5168 74.6H37.5163M37.5163 74.6H37.5158M37.5163 74.6H37.5158M37.5158 74.6H37.5152M37.5158 74.6H37.5152M37.5152 74.6H37.5147M37.5152 74.6H37.5147M37.5147 74.6H37.5142M37.5147 74.6H37.5142M37.5142 74.6H37.5137M37.5142 74.6H37.5137M37.5137 74.6H37.5132M37.5137 74.6H37.5132M37.5132 74.6H37.5126M37.5132 74.6H37.5126M37.5126 74.6H37.5121M37.5126 74.6H37.5121M37.5121 74.6H37.5116M37.5121 74.6H37.5116M37.5116 74.6H37.5111M37.5116 74.6H37.5111M37.5111 74.6H37.5106M37.5111 74.6H37.5106M37.5106 74.6H37.5101M37.5106 74.6H37.5101M37.5101 74.6H37.5095M37.5101 74.6H37.5095M37.5095 74.6H37.509M37.5095 74.6H37.509M37.509 74.6H37.5085M37.509 74.6H37.5085M37.5085 74.6H37.508M37.5085 74.6H37.508M37.508 74.6H37.5075M37.508 74.6H37.5075M37.5075 74.6H37.507M37.5075 74.6H37.507M37.507 74.6H37.5064M37.507 74.6H37.5064M37.5064 74.6H37.5059M37.5064 74.6H37.5059M37.5059 74.6H37.5054M37.5059 74.6H37.5054M37.5054 74.6H37.5049M37.5054 74.6H37.5049M37.5049 74.6H37.5044M37.5049 74.6H37.5044M37.5044 74.6H37.5038M37.5044 74.6H37.5038M37.5038 74.6H37.5033M37.5038 74.6H37.5033M37.5033 74.6H37.5028M37.5033 74.6H37.5028M37.5028 74.6H37.5023M37.5028 74.6H37.5023M37.5023 74.6H37.5018M37.5023 74.6H37.5018M37.5018 74.6H37.5013M37.5018 74.6H37.5013M37.5013 74.6H37.5007M37.5013 74.6H37.5007M37.5007 74.6H37.5002M37.5007 74.6H37.5002M37.5002 74.6H37.4997M37.5002 74.6H37.4997M37.4997 74.6H37.4992M37.4997 74.6H37.4992M37.4992 74.6H37.4987M37.4992 74.6H37.4987M37.4987 74.6H37.4982M37.4987 74.6H37.4982M37.4982 74.6H37.4976M37.4982 74.6H37.4976M37.4976 74.6H37.4971M37.4976 74.6H37.4971M37.4971 74.6H37.4966M37.4971 74.6H37.4966M37.4966 74.6H37.4961M37.4966 74.6H37.4961M37.4961 74.6H37.4956M37.4961 74.6H37.4956M37.4956 74.6H37.4951M37.4956 74.6H37.4951M37.4951 74.6H37.4945M37.4951 74.6H37.4945M37.4945 74.6H37.494M37.4945 74.6H37.494M37.494 74.6H37.4935M37.494 74.6H37.4935M37.4935 74.6H37.493M37.4935 74.6H37.493M37.493 74.6H37.4925M37.493 74.6H37.4925M37.4925 74.6H37.492M37.4925 74.6H37.492M37.492 74.6H37.4915M37.492 74.6H37.4915M37.4915 74.6H37.4909M37.4915 74.6H37.4909M37.4909 74.6H37.4904M37.4909 74.6H37.4904M37.4904 74.6H37.4899M37.4904 74.6H37.4899M37.4899 74.6H37.4894M37.4899 74.6H37.4894M37.4894 74.6H37.4889M37.4894 74.6H37.4889M37.4889 74.6H37.4884M37.4889 74.6H37.4884M37.4884 74.6H37.4879M37.4884 74.6H37.4879M37.4879 74.6H37.4873M37.4879 74.6H37.4873M37.4873 74.6H37.4868M37.4873 74.6H37.4868M37.4868 74.6H37.4863M37.4868 74.6H37.4863M37.4863 74.6H37.4858M37.4863 74.6H37.4858M37.4858 74.6H37.4853M37.4858 74.6H37.4853M37.4853 74.6H37.4848M37.4853 74.6H37.4848M37.4848 74.6H37.4842M37.4848 74.6H37.4842M37.4842 74.6H37.4837M37.4842 74.6H37.4837M37.4837 74.6H37.4832M37.4837 74.6H37.4832M37.4832 74.6H37.4827M37.4832 74.6H37.4827M37.4827 74.6H37.4822M37.4827 74.6H37.4822M37.4822 74.6H37.4817M37.4822 74.6H37.4817M37.4817 74.6H37.4812M37.4817 74.6H37.4812M37.4812 74.6H37.4806M37.4812 74.6H37.4806M37.4806 74.6H37.4801M37.4806 74.6H37.4801M37.4801 74.6H37.4796M37.4801 74.6H37.4796M37.4796 74.6H37.4791M37.4796 74.6H37.4791M37.4791 74.6H37.4786M37.4791 74.6H37.4786M37.4786 74.6H37.4781M37.4786 74.6H37.4781M37.4781 74.6H37.4776M37.4781 74.6H37.4776M37.4776 74.6H37.4771M37.4776 74.6H37.4771M37.4771 74.6H37.4765M37.4771 74.6H37.4765M37.4765 74.6H37.476M37.4765 74.6H37.476M37.476 74.6H37.4755M37.476 74.6H37.4755M37.4755 74.6H37.475M37.4755 74.6H37.475M37.475 74.6H37.4745M37.475 74.6H37.4745M37.4745 74.6H37.474M37.4745 74.6H37.474M37.474 74.6H37.4735M37.474 74.6H37.4735M37.4735 74.6H37.4729M37.4735 74.6H37.4729M37.4729 74.6H37.4724M37.4729 74.6H37.4724M37.4724 74.6H37.4719M37.4724 74.6H37.4719M37.4719 74.6H37.4714M37.4719 74.6H37.4714M37.4714 74.6H37.4709M37.4714 74.6H37.4709M37.4709 74.6H37.4704M37.4709 74.6H37.4704M37.4704 74.6H37.4699M37.4704 74.6H37.4699M37.4699 74.6H37.4693M37.4699 74.6H37.4693M37.4693 74.6H37.4688M37.4693 74.6H37.4688M37.4688 74.6H37.4683M37.4688 74.6H37.4683M37.4683 74.6H37.4678M37.4683 74.6H37.4678M37.4678 74.6H37.4673M37.4678 74.6H37.4673M37.4673 74.6H37.4668M37.4673 74.6H37.4668M37.4668 74.6H37.4663M37.4668 74.6H37.4663M37.4663 74.6H37.4658M37.4663 74.6H37.4658M37.4658 74.6H37.4652M37.4658 74.6H37.4652M37.4652 74.6H37.4647M37.4652 74.6H37.4647M37.4647 74.6H37.4642M37.4647 74.6H37.4642M37.4642 74.6H37.4637M37.4642 74.6H37.4637M37.4637 74.6H37.4632M37.4637 74.6H37.4632M37.4632 74.6H37.4627M37.4632 74.6H37.4627M37.4627 74.6H37.4622M37.4627 74.6H37.4622M37.4622 74.6H37.4617M37.4622 74.6H37.4617M37.4617 74.6H37.4612M37.4617 74.6H37.4612M37.4612 74.6H37.4606M37.4612 74.6H37.4606M37.4606 74.6H37.4601M37.4606 74.6H37.4601M37.4601 74.6H37.4596M37.4601 74.6H37.4596M37.4596 74.6H37.4591M37.4596 74.6H37.4591M37.4591 74.6H37.4586M37.4591 74.6H37.4586M37.4586 74.6H37.4581M37.4586 74.6H37.4581M37.4581 74.6H37.4576M37.4581 74.6H37.4576M37.4576 74.6H37.4571M37.4576 74.6H37.4571M37.4571 74.6H37.4565M37.4571 74.6H37.4565M37.4565 74.6H37.456M37.4565 74.6H37.456M37.456 74.6H37.4555M37.456 74.6H37.4555M37.4555 74.6H37.455M37.4555 74.6H37.455M37.455 74.6H37.4545M37.455 74.6H37.4545M37.4545 74.6H37.454M37.4545 74.6H37.454M37.454 74.6H37.4535M37.454 74.6H37.4535M37.4535 74.6H37.453M37.4535 74.6H37.453M37.453 74.6H37.4524M37.453 74.6H37.4524M37.4524 74.6H37.4519M37.4524 74.6H37.4519M37.4519 74.6H37.4514M37.4519 74.6H37.4514M37.4514 74.6H37.4509M37.4514 74.6H37.4509M37.4509 74.6H37.4504M37.4509 74.6H37.4504M37.4504 74.6H37.4499M37.4504 74.6H37.4499M37.4499 74.6H37.4494M37.4499 74.6H37.4494M37.4494 74.6H37.4489M37.4494 74.6H37.4489M37.4489 74.6H37.4484M37.4489 74.6H37.4484M37.4484 74.6H37.4478M37.4484 74.6H37.4478M37.4478 74.6H37.4473M37.4478 74.6H37.4473M37.4473 74.6H37.4468M37.4473 74.6H37.4468M37.4468 74.6H37.4463M37.4468 74.6H37.4463M37.4463 74.6H37.4458M37.4463 74.6H37.4458M37.4458 74.6H37.4453M37.4458 74.6H37.4453M37.4453 74.6H37.4448M37.4453 74.6H37.4448M37.4448 74.6H37.4443M37.4448 74.6H37.4443M37.4443 74.6H37.4438M37.4443 74.6H37.4438M37.4438 74.6H37.4432M37.4438 74.6H37.4432M37.4432 74.6H37.4427M37.4432 74.6H37.4427M37.4427 74.6H37.4422M37.4427 74.6H37.4422M37.4422 74.6H37.4417M37.4422 74.6H37.4417M37.4417 74.6H37.4412M37.4417 74.6H37.4412M37.4412 74.6H37.4407M37.4412 74.6H37.4407M37.4407 74.6H37.4402M37.4407 74.6H37.4402M37.4402 74.6H37.4397M37.4402 74.6H37.4397M37.4397 74.6H37.4392M37.4397 74.6H37.4392M37.4392 74.6H37.4386M37.4392 74.6H37.4386M37.4386 74.6H37.4381M37.4386 74.6H37.4381M37.4381 74.6H37.4376M37.4381 74.6H37.4376M37.4376 74.6H37.4371M37.4376 74.6H37.4371M37.4371 74.6H37.4366M37.4371 74.6H37.4366M37.4366 74.6H37.4361M37.4366 74.6H37.4361M37.4361 74.6H37.4356M37.4361 74.6H37.4356M37.4356 74.6H37.4351M37.4356 74.6H37.4351M37.4351 74.6H37.4346M37.4351 74.6H37.4346M37.4346 74.6H37.434M37.4346 74.6H37.434M37.434 74.6H37.4335M37.434 74.6H37.4335M37.4335 74.6H37.433M37.4335 74.6H37.433M37.433 74.6H37.4325M37.433 74.6H37.4325M37.4325 74.6H37.432M37.4325 74.6H37.432M37.432 74.6H37.4315M37.432 74.6H37.4315M37.4315 74.6H37.431M37.4315 74.6H37.431M37.431 74.6H37.4305M37.431 74.6H37.4305M37.4305 74.6H37.43M37.4305 74.6H37.43M37.43 74.6H37.4294M37.43 74.6H37.4294M37.4294 74.6H37.4289M37.4294 74.6H37.4289M37.4289 74.6H37.4284M37.4289 74.6H37.4284M37.4284 74.6H37.4279M37.4284 74.6H37.4279M37.4279 74.6H37.4274M37.4279 74.6H37.4274M37.4274 74.6H37.4269M37.4274 74.6H37.4269M37.4269 74.6H37.4264M37.4269 74.6H37.4264M37.4264 74.6H37.4259M37.4264 74.6H37.4259M37.4259 74.6H37.4254M37.4259 74.6H37.4254M37.4254 74.6H37.4248M37.4254 74.6H37.4248M37.4248 74.6H37.4243M37.4248 74.6H37.4243M37.4243 74.6H37.4238M37.4243 74.6H37.4238M37.4238 74.6H37.4233M37.4238 74.6H37.4233M37.4233 74.6H37.4228M37.4233 74.6H37.4228M37.4228 74.6H37.4223M37.4228 74.6H37.4223M37.4223 74.6H37.4218M37.4223 74.6H37.4218M37.4218 74.6H37.4213M37.4218 74.6H37.4213M37.4213 74.6H37.4208M37.4213 74.6H37.4208M37.4208 74.6H37.4202M37.4208 74.6H37.4202M37.4202 74.6H37.4197M37.4202 74.6H37.4197M37.4197 74.6H37.4192M37.4197 74.6H37.4192M37.4192 74.6H37.4187M37.4192 74.6H37.4187M37.4187 74.6H37.4182M37.4187 74.6H37.4182M37.4182 74.6H37.4177M37.4182 74.6H37.4177M37.4177 74.6H37.4172M37.4177 74.6H37.4172M37.4172 74.6H37.4167M37.4172 74.6H37.4167M37.4167 74.6H37.4162M37.4167 74.6H37.4162M37.4162 74.6H37.4156M37.4162 74.6H37.4156M37.4156 74.6H37.4151M37.4156 74.6H37.4151M37.4151 74.6H37.4146M37.4151 74.6H37.4146M37.4146 74.6H37.4141M37.4146 74.6H37.4141M37.4141 74.6H37.4136M37.4141 74.6H37.4136M37.4136 74.6H37.4131M37.4136 74.6H37.4131M37.4131 74.6H37.4126M37.4131 74.6H37.4126M37.4126 74.6H37.4121M37.4126 74.6H37.4121M37.4121 74.6H37.4116M37.4121 74.6H37.4116M37.4116 74.6H37.4111M37.4116 74.6H37.4111M37.4111 74.6H37.4105M37.4111 74.6H37.4105M37.4105 74.6H37.41M37.4105 74.6H37.41M37.41 74.6H37.4095M37.41 74.6H37.4095M37.4095 74.6H37.409M37.4095 74.6H37.409M37.409 74.6H37.4085M37.409 74.6H37.4085M37.4085 74.6H37.408M37.4085 74.6H37.408M37.408 74.6H37.4075M37.408 74.6H37.4075M37.4075 74.6H37.407M37.4075 74.6H37.407M37.407 74.6H37.4065M37.407 74.6H37.4065M37.4065 74.6H37.4059M37.4065 74.6H37.4059M37.4059 74.6H37.4054M37.4059 74.6H37.4054M37.4054 74.6H37.4049M37.4054 74.6H37.4049M37.4049 74.6H37.4044M37.4049 74.6H37.4044M37.4044 74.6H37.4039M37.4044 74.6H37.4039M37.4039 74.6H37.4034M37.4039 74.6H37.4034M37.4034 74.6H37.4029M37.4034 74.6H37.4029M37.4029 74.6H37.4024M37.4029 74.6H37.4024M37.4024 74.6H37.4019M37.4024 74.6H37.4019M37.4019 74.6H37.4013M37.4019 74.6H37.4013M37.4013 74.6H37.4008M37.4013 74.6H37.4008M37.4008 74.6H37.4003M37.4008 74.6H37.4003M37.4003 74.6H37.3998M37.4003 74.6H37.3998M37.3998 74.6H37.3993M37.3998 74.6H37.3993M37.3993 74.6H37.3988M37.3993 74.6H37.3988M37.3988 74.6H37.3983M37.3988 74.6H37.3983M37.3983 74.6H37.3978M37.3983 74.6H37.3978M37.3978 74.6H37.3972M37.3978 74.6H37.3972M37.3972 74.6H37.3967M37.3972 74.6H37.3967M37.3967 74.6H37.3962M37.3967 74.6H37.3962M37.3962 74.6H37.3957M37.3962 74.6H37.3957M37.3957 74.6H37.3952M37.3957 74.6H37.3952M37.3952 74.6H37.3947M37.3952 74.6H37.3947M37.3947 74.6H37.3942M37.3947 74.6H37.3942M37.3942 74.6H37.3937M37.3942 74.6H37.3937M37.3937 74.6H37.3932M37.3937 74.6H37.3932M37.3932 74.6H37.3926M37.3932 74.6H37.3926M37.3926 74.6H37.3921M37.3926 74.6H37.3921M37.3921 74.6H37.3916M37.3921 74.6H37.3916M37.3916 74.6H37.3911M37.3916 74.6H37.3911M37.3911 74.6H37.3906M37.3911 74.6H37.3906M37.3906 74.6H37.3901M37.3906 74.6H37.3901M37.3901 74.6H37.3896M37.3901 74.6H37.3896M37.3896 74.6H37.3891M37.3896 74.6H37.3891M37.3891 74.6H37.3885M37.3891 74.6H37.3885M37.3885 74.6H37.388M37.3885 74.6H37.388M37.388 74.6H37.3875M37.388 74.6H37.3875M37.3875 74.6H37.387M37.3875 74.6H37.387M37.387 74.6H37.3865M37.387 74.6H37.3865M37.3865 74.6H37.386M37.3865 74.6H37.386M37.386 74.6H37.3855M37.386 74.6H37.3855M37.3855 74.6H37.385M37.3855 74.6H37.385M37.385 74.6H37.3844M37.385 74.6H37.3844M37.3844 74.6H37.3839M37.3844 74.6H37.3839M37.3839 74.6H37.3834M37.3839 74.6H37.3834M37.3834 74.6H37.3829M37.3834 74.6H37.3829M37.3829 74.6H37.3824M37.3829 74.6H37.3824M37.3824 74.6H37.3819M37.3824 74.6H37.3819M37.3819 74.6H37.3814M37.3819 74.6H37.3814M37.3814 74.6H37.3809M37.3814 74.6H37.3809M37.3809 74.6H37.3803M37.3809 74.6H37.3803M37.3803 74.6H37.3798M37.3803 74.6H37.3798M37.3798 74.6H37.3793M37.3798 74.6H37.3793M37.3793 74.6H37.3788M37.3793 74.6H37.3788M37.3788 74.6H37.3783M37.3788 74.6H37.3783M37.3783 74.6H37.3778M37.3783 74.6H37.3778M37.3778 74.6H37.3773M37.3778 74.6H37.3773M37.3773 74.6H37.3768M37.3773 74.6H37.3768M37.3768 74.6H37.3762M37.3768 74.6H37.3762M37.3762 74.6H37.3757M37.3762 74.6H37.3757M37.3757 74.6H37.3752M37.3757 74.6H37.3752M37.3752 74.6H37.3747M37.3752 74.6H37.3747M37.3747 74.6H37.3742M37.3747 74.6H37.3742M37.3742 74.6H37.3737M37.3742 74.6H37.3737M37.3737 74.6H37.3732M37.3737 74.6H37.3732M37.3732 74.6H37.3727M37.3732 74.6H37.3727M37.3727 74.6H37.3721M37.3727 74.6H37.3721M37.3721 74.6H37.3716M37.3721 74.6H37.3716M37.3716 74.6H37.3711M37.3716 74.6H37.3711M37.3711 74.6H37.3706M37.3711 74.6H37.3706M37.3706 74.6H37.3701M37.3706 74.6H37.3701M37.3701 74.6H37.3696M37.3701 74.6H37.3696M37.3696 74.6H37.3691M37.3696 74.6H37.3691M37.3691 74.6H37.3685M37.3691 74.6H37.3685M37.3685 74.6H37.368M37.3685 74.6H37.368M37.368 74.6H37.3675M37.368 74.6H37.3675M37.3675 74.6H37.367M37.3675 74.6H37.367M37.367 74.6H37.3665M37.367 74.6H37.3665M37.3665 74.6H37.366M37.3665 74.6H37.366M37.366 74.6H37.3655M37.366 74.6H37.3655M37.3655 74.6H37.3649M37.3655 74.6H37.3649M37.3649 74.6H37.3644M37.3649 74.6H37.3644M37.3644 74.6H37.3639M37.3644 74.6H37.3639M37.3639 74.6H37.3634M37.3639 74.6H37.3634M37.3634 74.6H37.3629M37.3634 74.6H37.3629M37.3629 74.6H37.3624M37.3629 74.6H37.3624M37.3624 74.6H37.3619M37.3624 74.6H37.3619M37.3619 74.6H37.3613M37.3619 74.6H37.3613M37.3613 74.6H37.3608M37.3613 74.6H37.3608M37.3608 74.6H37.3603M37.3608 74.6H37.3603M37.3603 74.6H37.3598M37.3603 74.6H37.3598M37.3598 74.6H37.3593M37.3598 74.6H37.3593M37.3593 74.6H37.3588M37.3593 74.6H37.3588M37.3588 74.6H37.3582M37.3588 74.6H37.3582M37.3582 74.6H37.3577M37.3582 74.6H37.3577M37.3577 74.6H37.3572M37.3577 74.6H37.3572M37.3572 74.6H37.3567M37.3572 74.6H37.3567M37.3567 74.6H37.3562M37.3567 74.6H37.3562M37.3562 74.6H37.3557M37.3562 74.6H37.3557M37.3557 74.6H37.3552M37.3557 74.6H37.3552M37.3552 74.6H37.3546M37.3552 74.6H37.3546M37.3546 74.6H37.3541M37.3546 74.6H37.3541M37.3541 74.6H37.3536M37.3541 74.6H37.3536M37.3536 74.6H37.3531M37.3536 74.6H37.3531M37.3531 74.6H37.3526M37.3531 74.6H37.3526M37.3526 74.6H37.3521M37.3526 74.6H37.3521M37.3521 74.6H37.3515M37.3521 74.6H37.3515M37.3515 74.6H37.351M37.3515 74.6H37.351M37.351 74.6H37.3505M37.351 74.6H37.3505M37.3505 74.6H37.35M37.3505 74.6H37.35M37.35 74.6H37.3495H37.35ZM0.435157 68.0693L0.435157 68.0689L0.0351574 68.0697L0.435157 68.0693Z" fill="url(#paint0_linear_106_855)" stroke="#5A0319" stroke-width="0.8"/>
<defs>
<linearGradient id="paint0_linear_106_855" x1="37.5" y1="0" x2="37.5" y2="75" gradientUnits="userSpaceOnUse">
<stop stop-color="#C4C23D" stop-opacity="0.9"/>
<stop offset="1" stop-color="#FB9803" stop-opacity="0.9"/>
</linearGradient>
</defs>
</svg>
