<svg width="32" height="32" viewBox="0 0 32 32" fill="none" xmlns="http://www.w3.org/2000/svg">
<g clip-path="url(#clip0_896_2)">
<path d="M0.3 5C0.3 4.44963 0.657535 3.87008 1.43557 3.29524C2.20773 2.72474 3.34424 2.19831 4.77561 1.75097C7.6348 0.857403 11.6032 0.3 16 0.3C20.3968 0.3 24.3652 0.857403 27.2244 1.75097C28.6558 2.19831 29.7923 2.72474 30.5644 3.29524C31.3425 3.87008 31.7 4.44963 31.7 5V9C31.7 9.55037 31.3425 10.1299 30.5644 10.7048C29.7923 11.2753 28.6558 11.8017 27.2244 12.249C24.3652 13.1426 20.3968 13.7 16 13.7C11.6032 13.7 7.6348 13.1426 4.77561 12.249C3.34424 11.8017 2.20773 11.2753 1.43557 10.7048C0.657535 10.1299 0.3 9.55037 0.3 9V5Z" fill="url(#paint0_linear_896_2)" stroke="#5A0319" stroke-width="0.6"/>
<path d="M0.3 18V13.4733C0.513158 13.7255 0.77647 13.9638 1.07902 14.1873C1.92609 14.8132 3.13264 15.3642 4.59664 15.8217C7.5282 16.7379 11.5598 17.3 16 17.3C20.4402 17.3 24.4718 16.7379 27.4034 15.8217C28.8674 15.3642 30.0739 14.8132 30.921 14.1873C31.2235 13.9638 31.4868 13.7255 31.7 13.4733V18C31.7 18.5504 31.3425 19.1299 30.5644 19.7048C29.7923 20.2753 28.6558 20.8017 27.2244 21.249C24.3652 22.1426 20.3968 22.7 16 22.7C11.6032 22.7 7.6348 22.1426 4.77561 21.249C3.34424 20.8017 2.20773 20.2753 1.43557 19.7048C0.657535 19.1299 0.3 18.5504 0.3 18Z" fill="url(#paint1_linear_896_2)" stroke="#5A0319" stroke-width="0.6"/>
<path d="M0.3 27V22.4733C0.513158 22.7255 0.77647 22.9638 1.07902 23.1873C1.92609 23.8132 3.13264 24.3642 4.59664 24.8217C7.5282 25.7379 11.5598 26.3 16 26.3C20.4402 26.3 24.4718 25.7379 27.4034 24.8217C28.8674 24.3642 30.0739 23.8132 30.921 23.1873C31.2235 22.9638 31.4868 22.7255 31.7 22.4733V27C31.7 27.5504 31.3425 28.1299 30.5644 28.7048C29.7923 29.2753 28.6558 29.8017 27.2244 30.249C24.3652 31.1426 20.3968 31.7 16 31.7C11.6032 31.7 7.6348 31.1426 4.77561 30.249C3.34424 29.8017 2.20773 29.2753 1.43557 28.7048C0.657535 28.1299 0.3 27.5504 0.3 27Z" fill="url(#paint2_linear_896_2)" stroke="#5A0319" stroke-width="0.6"/>
</g>
<defs>
<linearGradient id="paint0_linear_896_2" x1="16" y1="0" x2="16" y2="14" gradientUnits="userSpaceOnUse">
<stop stop-color="#C4C23D" stop-opacity="0.85"/>
<stop offset="1" stop-color="#FB9803" stop-opacity="0.85"/>
</linearGradient>
<linearGradient id="paint1_linear_896_2" x1="16" y1="12" x2="16" y2="23" gradientUnits="userSpaceOnUse">
<stop stop-color="#C4C23D" stop-opacity="0.85"/>
<stop offset="1" stop-color="#FB9803" stop-opacity="0.85"/>
</linearGradient>
<linearGradient id="paint2_linear_896_2" x1="16" y1="21" x2="16" y2="32" gradientUnits="userSpaceOnUse">
<stop stop-color="#C4C23D" stop-opacity="0.85"/>
<stop offset="1" stop-color="#FB9803" stop-opacity="0.85"/>
</linearGradient>
<clipPath id="clip0_896_2">
<rect width="32" height="32" fill="white"/>
</clipPath>
</defs>
</svg>
