<svg width="80" height="45" viewBox="0 0 80 45" fill="none" xmlns="http://www.w3.org/2000/svg">
<path d="M6.27767 28.4426C4.77874 27.489 3.3436 26.1717 2.89762 24.386C4.44362 27.7059 11.9955 27.598 12.9229 34.3534C13.9778 33.7155 14.5266 32.3309 14.1292 29.9917C13.1623 24.293 4.4821 26.2663 2.08715 21.5425C-1.13749 28.7764 8.00591 35.8309 12.2359 34.6391C10.3209 29.8555 9.41625 30.4388 6.27767 28.4426Z" fill="#5A0319"/>
<path d="M73.7221 28.4426C75.221 27.489 76.6562 26.1717 77.1022 24.386C75.5562 27.7059 68.0043 27.598 67.0769 34.3534C66.022 33.7155 65.4737 32.3309 65.8706 29.9917C66.8375 24.293 75.5177 26.2663 77.9121 21.5425C81.1373 28.7764 71.9939 35.8309 67.7639 34.6391C69.6794 29.8555 70.5835 30.4388 73.7221 28.4426Z" fill="#5A0319"/>
<path d="M0.287581 4.17963L2.45371 0.785404C2.97309 -0.0292311 4.02047 -0.245051 4.79195 0.303025L23.6031 13.6689C24.375 14.217 24.5796 15.3217 24.0597 16.1369L22.1669 19.1032C21.3483 20.3863 19.4753 20.0311 19.1316 18.5279C19.0233 18.0562 18.7367 17.6508 18.3378 17.4072L0.840884 6.71113C-0.00349605 6.19511 -0.257115 5.03379 0.287581 4.17963Z" fill="#5A0319"/>
<path d="M19.5503 16.2672C19.0031 15.8783 18.8583 15.0958 19.2268 14.5183C19.5949 13.9408 20.337 13.7875 20.8842 14.1764C21.4314 14.5648 21.5762 15.3484 21.2077 15.9253C20.8397 16.5028 20.0975 16.6561 19.5503 16.2672Z" fill="white"/>
<path d="M4.01101 5.22716C3.46379 4.83827 3.319 4.05569 3.68753 3.47824C4.05556 2.90132 4.79768 2.748 5.34491 3.13689C5.89214 3.52524 6.03691 4.30835 5.66838 4.88581C5.30036 5.46273 4.55824 5.61605 4.01101 5.22716Z" fill="white"/>
<path d="M41.3157 40.8752C38.5664 39.7075 35.6992 38.2331 32.8061 36.3902C31.0809 35.294 29.5602 34.332 28.2187 33.4895C16.6935 26.2225 18.5726 27.5895 20.3955 24.5366C22.1055 21.6627 25.0239 17.2161 25.9048 15.8817C26.0531 15.66 26.3295 15.606 26.5396 15.7519C27.9575 16.746 33.1032 20.6092 39.1243 25.1797C43.2151 28.2812 47.7103 31.7064 51.7196 34.7807C57.9401 39.5462 62.9886 43.4628 63.5212 43.9815C64.7397 45.1701 54.3054 46.4073 41.3157 40.8752Z" fill="#5A0319"/>
<path d="M57.4876 42.511C52.2046 39.0879 47.1009 35.3972 42.0407 31.6408C36.9987 27.8582 32.0018 24.0083 27.1851 19.8887C32.4695 23.3107 37.5733 27.0014 42.6319 30.7594C47.6724 34.5441 52.6693 38.394 57.4876 42.511Z" fill="white"/>
<path d="M79.7124 4.17963L77.5462 0.785404C77.0269 -0.0292311 75.9795 -0.245051 75.208 0.303025L56.3967 13.6689C55.6248 14.217 55.4202 15.3217 55.9401 16.1369L57.8329 19.1032C58.6515 20.3863 60.5245 20.0311 60.8682 18.5279C60.9765 18.0562 61.2631 17.6508 61.6615 17.4072L79.1591 6.71113C80.0034 6.19511 80.2571 5.03379 79.7124 4.17963Z" fill="#5A0319"/>
<path d="M60.4494 16.2672C60.9966 15.8783 61.1414 15.0958 60.7729 14.5183C60.4049 13.9408 59.6627 13.7875 59.1155 14.1764C58.5683 14.5648 58.4235 15.3484 58.792 15.9253C59.1601 16.5028 59.9022 16.6561 60.4494 16.2672Z" fill="white"/>
<path d="M75.9885 5.22716C76.5357 4.83827 76.6805 4.05569 76.3119 3.47824C75.9439 2.90132 75.2018 2.748 74.6546 3.13689C74.1073 3.52524 73.9626 4.30835 74.3311 4.88581C74.6996 5.46273 75.4412 5.61605 75.9885 5.22716Z" fill="white"/>
<path d="M39.1243 25.1797C35.5458 27.903 31.7157 30.8148 28.2192 33.4895C29.5602 34.3319 31.0809 35.294 32.8066 36.3901C35.6992 38.2331 38.5664 39.7074 41.3157 40.8752C43.3842 39.8859 45.5295 38.708 47.721 37.3143C49.1905 36.38 50.5265 35.5317 51.7196 34.7806C47.7103 31.7064 43.2156 28.2812 39.1243 25.1797Z" fill="white"/>
<path d="M54.0928 15.8798C53.9491 15.6624 53.6696 15.6042 53.4595 15.7511C49.5895 18.4615 17.867 42.6303 16.4804 43.9813C15.0063 45.4182 30.6375 46.9391 47.1915 36.3905C63.746 25.8413 61.6386 27.9455 59.6066 24.5358C57.8961 21.6645 54.9737 17.2147 54.0928 15.8798Z" fill="#5A0319"/>
<path d="M22.5122 42.511C27.3299 38.394 32.3269 34.5441 37.3678 30.7594C42.4265 27.0014 47.5303 23.3107 52.8147 19.8887C47.998 24.0083 43.0011 27.8582 37.9591 31.6408C32.8989 35.3972 27.7952 39.0879 22.5122 42.511Z" fill="white"/>
</svg>
