<svg width="40" height="40" viewBox="0 0 40 40" fill="none" xmlns="http://www.w3.org/2000/svg">
<g clip-path="url(#clip0_1095_9284)">
<path d="M20 0C8.95375 0 0 8.95375 0 20C0 31.0462 8.95375 40 20 40C31.0462 40 40 31.0462 40 20C40 8.95375 31.0462 0 20 0ZM20 36.25C11.025 36.25 3.75 28.975 3.75 20C3.75 11.025 11.025 3.75 20 3.75C28.975 3.75 36.25 11.025 36.25 20C36.25 28.975 28.975 36.25 20 36.25Z" fill="#F5F28E"/>
<path d="M13.8575 27.6076L17.3938 31.1439L28.5363 20.0014L17.3938 8.85889L13.8588 12.3939L21.4663 20.0014L13.8575 27.6076Z" fill="#F5F28E"/>
</g>
<defs>
<clipPath id="clip0_1095_9284">
<rect width="40" height="40" fill="white"/>
</clipPath>
</defs>
</svg>
