<svg width="40" height="40" viewBox="0 0 40 40" fill="none" xmlns="http://www.w3.org/2000/svg">
<g clip-path="url(#clip0_1095_9279)">
<path d="M20 40C31.0462 40 40 31.0462 40 20C40 8.95375 31.0462 0 20 0C8.95375 0 0 8.95375 0 20C0 31.0462 8.95375 40 20 40ZM20 3.75C28.975 3.75 36.25 11.025 36.25 20C36.25 28.975 28.975 36.25 20 36.25C11.025 36.25 3.75 28.975 3.75 20C3.75 11.025 11.025 3.75 20 3.75Z" fill="#F5F28E"/>
<path d="M26.1425 12.3927L22.6062 8.85645L11.4637 19.9989L22.6062 31.1414L26.1412 27.6064L18.5337 19.9989L26.1425 12.3927Z" fill="#F5F28E"/>
</g>
<defs>
<clipPath id="clip0_1095_9279">
<rect width="40" height="40" fill="white"/>
</clipPath>
</defs>
</svg>
