<svg width="42" height="41" viewBox="0 0 42 41" fill="none" xmlns="http://www.w3.org/2000/svg">
<path d="M20.7714 0.363525C15.1824 0.363525 14.4855 0.388525 12.2908 0.483525C10.1 0.583525 8.60852 0.918525 7.29709 1.41353C5.94452 1.92353 4.79638 2.60853 3.65209 3.71978C2.50781 4.83103 1.80195 5.94603 1.27995 7.26353C0.770808 8.53853 0.424951 9.98853 0.32338 12.1185C0.220523 14.2523 0.199951 14.9298 0.199951 20.3635C0.199951 25.7973 0.225665 26.4748 0.32338 28.6085C0.426237 30.7373 0.770808 32.1885 1.27995 33.4635C1.80452 34.7773 2.50909 35.8948 3.65209 37.0073C4.79509 38.1173 5.94195 38.806 7.29709 39.3135C8.60981 39.8073 10.1012 40.1448 12.2908 40.2435C14.4855 40.3435 15.1824 40.3635 20.7714 40.3635C26.3604 40.3635 27.0572 40.3385 29.252 40.2435C31.4415 40.1435 32.9342 39.8073 34.2457 39.3135C35.5969 38.8035 36.7464 38.1173 37.8907 37.0073C39.0324 35.896 39.7408 34.7823 40.2628 33.4635C40.7707 32.1885 41.1178 30.7373 41.2194 28.6085C41.3222 26.4748 41.3428 25.7973 41.3428 20.3635C41.3428 14.9298 41.3171 14.2523 41.2194 12.1185C41.1165 9.98978 40.7707 8.53728 40.2628 7.26353C39.7382 5.94853 39.0324 4.83228 37.8907 3.71978C36.7477 2.60853 35.6021 1.92103 34.2457 1.41353C32.9342 0.918525 31.4415 0.582275 29.252 0.483525C27.0572 0.383525 26.3604 0.363525 20.7714 0.363525ZM20.7714 3.96353C26.2627 3.96353 26.9171 3.98978 29.0861 4.08228C31.0918 4.17353 32.1808 4.49728 32.9034 4.77353C33.8664 5.13478 34.5491 5.56853 35.2729 6.26728C35.9917 6.96728 36.4365 7.63228 36.8094 8.56853C37.091 9.27228 37.4265 10.3298 37.5178 12.2798C37.6155 14.3898 37.6374 15.0235 37.6374 20.3635C37.6374 25.7035 37.6117 26.3385 37.5101 28.4473C37.4059 30.3973 37.0717 31.456 36.7888 32.1585C36.4044 33.0948 35.9672 33.7585 35.2472 34.4623C34.5285 35.161 33.8342 35.5935 32.8815 35.956C32.1615 36.2298 31.0558 36.556 29.0501 36.6448C26.8657 36.7398 26.2228 36.761 20.72 36.761C15.2158 36.761 14.573 36.736 12.3898 36.6373C10.3828 36.536 9.27709 36.211 8.55709 35.936C7.58124 35.5623 6.91138 35.1373 6.19266 34.4373C5.47138 33.7385 5.00981 33.0635 4.64981 32.1373C4.36695 31.4373 4.03395 30.3623 3.92981 28.4123C3.85267 26.3123 3.82567 25.6635 3.82567 20.3385C3.82567 15.0123 3.85267 14.3623 3.92981 12.2373C4.03395 10.2873 4.36695 9.21353 4.64981 8.51353C5.00981 7.56353 5.47138 6.91353 6.19266 6.21228C6.91138 5.51353 7.58124 5.06353 8.55709 4.71603C9.27709 4.43978 10.3584 4.11478 12.3641 4.01478C14.5498 3.93978 15.1927 3.91478 20.6942 3.91478L20.7714 3.96353ZM20.7714 10.0935C14.9342 10.0935 10.208 14.6935 10.208 20.3635C10.208 26.0385 14.9394 30.6335 20.7714 30.6335C26.6085 30.6335 31.3348 26.0335 31.3348 20.3635C31.3348 14.6885 26.6034 10.0935 20.7714 10.0935ZM20.7714 27.0298C16.9824 27.0298 13.9147 24.046 13.9147 20.3635C13.9147 16.681 16.9837 13.6973 20.7714 13.6973C24.5591 13.6973 27.6281 16.681 27.6281 20.3635C27.6281 24.046 24.5591 27.0298 20.7714 27.0298ZM34.2212 9.68853C34.2212 11.0135 33.1142 12.0885 31.7527 12.0885C30.3898 12.0885 29.2841 11.0123 29.2841 9.68853C29.2841 8.36478 30.3911 7.28978 31.7527 7.28978C33.1117 7.28853 34.2212 8.36478 34.2212 9.68853Z" fill="#5A0319" fill-opacity="0.9"/>
</svg>
