<svg width="42" height="40" viewBox="0 0 42 40" fill="none" xmlns="http://www.w3.org/2000/svg">
<path d="M20.6 0C15.011 0 14.3141 0.025 12.1194 0.12C9.92856 0.22 8.43714 0.555 7.12571 1.05C5.77314 1.56 4.62499 2.245 3.48071 3.35625C2.33642 4.4675 1.63056 5.5825 1.10856 6.9C0.599422 8.175 0.253564 9.625 0.151993 11.755C0.0491359 13.8888 0.0285645 14.5662 0.0285645 20C0.0285645 25.4338 0.0542787 26.1113 0.151993 28.245C0.25485 30.3738 0.599422 31.825 1.10856 33.1C1.63314 34.4137 2.33771 35.5312 3.48071 36.6438C4.62371 37.7538 5.77056 38.4425 7.12571 38.95C8.43842 39.4438 9.92985 39.7813 12.1194 39.88C14.3141 39.98 15.011 40 20.6 40C26.189 40 26.8859 39.975 29.0806 39.88C31.2701 39.78 32.7628 39.4438 34.0743 38.95C35.4256 38.44 36.575 37.7538 37.7193 36.6438C38.861 35.5325 39.5694 34.4188 40.0914 33.1C40.5993 31.825 40.9464 30.3738 41.048 28.245C41.1509 26.1113 41.1714 25.4338 41.1714 20C41.1714 14.5662 41.1457 13.8888 41.048 11.755C40.9451 9.62625 40.5993 8.17375 40.0914 6.9C39.5668 5.585 38.861 4.46875 37.7193 3.35625C36.5763 2.245 35.4307 1.5575 34.0743 1.05C32.7628 0.555 31.2701 0.21875 29.0806 0.12C26.8859 0.02 26.189 0 20.6 0ZM20.6 3.6C26.0913 3.6 26.7457 3.62625 28.9147 3.71875C30.9204 3.81 32.0094 4.13375 32.732 4.41C33.695 4.77125 34.3777 5.205 35.1016 5.90375C35.8203 6.60375 36.2651 7.26875 36.638 8.205C36.9196 8.90875 37.2551 9.96625 37.3464 11.9163C37.4441 14.0262 37.466 14.66 37.466 20C37.466 25.34 37.4403 25.975 37.3387 28.0837C37.2346 30.0337 36.9003 31.0925 36.6174 31.795C36.233 32.7313 35.7958 33.395 35.0758 34.0988C34.3571 34.7975 33.6628 35.23 32.7101 35.5925C31.9901 35.8663 30.8844 36.1925 28.8787 36.2812C26.6943 36.3763 26.0514 36.3975 20.5486 36.3975C15.0444 36.3975 14.4016 36.3725 12.2184 36.2738C10.2114 36.1725 9.10571 35.8475 8.38571 35.5725C7.40985 35.1988 6.73999 34.7738 6.02128 34.0737C5.29999 33.375 4.83842 32.7 4.47842 31.7738C4.19556 31.0738 3.86256 29.9988 3.75842 28.0487C3.68128 25.9488 3.65428 25.3 3.65428 19.975C3.65428 14.6487 3.68128 13.9988 3.75842 11.8738C3.86256 9.92375 4.19556 8.85 4.47842 8.15C4.83842 7.2 5.29999 6.55 6.02128 5.84875C6.73999 5.15 7.40985 4.7 8.38571 4.3525C9.10571 4.07625 10.187 3.75125 12.1927 3.65125C14.3784 3.57625 15.0213 3.55125 20.5228 3.55125L20.6 3.6ZM20.6 9.73C14.7628 9.73 10.0366 14.33 10.0366 20C10.0366 25.675 14.768 30.27 20.6 30.27C26.4371 30.27 31.1634 25.67 31.1634 20C31.1634 14.325 26.432 9.73 20.6 9.73ZM20.6 26.6663C16.811 26.6663 13.7433 23.6825 13.7433 20C13.7433 16.3175 16.8123 13.3338 20.6 13.3338C24.3877 13.3338 27.4567 16.3175 27.4567 20C27.4567 23.6825 24.3877 26.6663 20.6 26.6663ZM34.0499 9.325C34.0499 10.65 32.9429 11.725 31.5813 11.725C30.2184 11.725 29.1127 10.6488 29.1127 9.325C29.1127 8.00125 30.2197 6.92625 31.5813 6.92625C32.9403 6.925 34.0499 8.00125 34.0499 9.325Z" fill="url(#paint0_linear_109_910)"/>
<defs>
<linearGradient id="paint0_linear_109_910" x1="20.6" y1="0" x2="20.6" y2="40" gradientUnits="userSpaceOnUse">
<stop offset="0.0001" stop-color="#C4C23D" stop-opacity="0.85"/>
<stop offset="1" stop-color="#FB9803" stop-opacity="0.85"/>
</linearGradient>
</defs>
</svg>
