<svg width="40" height="26" viewBox="0 0 40 26" fill="none" xmlns="http://www.w3.org/2000/svg">
<path d="M35.5325 0H3.7016C1.68157 0 0.0288086 1.35 0.0288086 3V23C0.0288086 24.65 1.68157 26 3.7016 26H35.5325C37.5525 26 39.2053 24.65 39.2053 23V3C39.2053 1.35 37.5525 0 35.5325 0ZM15.2844 13.199L4.92587 19.789V4.113L15.2844 13.199ZM6.77696 4H32.4571L19.617 11.875L6.77696 4ZM15.6872 13.553L19.617 17L23.5469 13.553L31.6026 22H7.63272L15.6872 13.553ZM23.9497 13.199L34.3082 4.113V19.789L23.9497 13.199Z" fill="url(#paint0_linear_109_908)"/>
<defs>
<linearGradient id="paint0_linear_109_908" x1="19.617" y1="0" x2="19.617" y2="26" gradientUnits="userSpaceOnUse">
<stop offset="0.0001" stop-color="#C4C23D" stop-opacity="0.85"/>
<stop offset="1" stop-color="#FB9803" stop-opacity="0.85"/>
</linearGradient>
</defs>
</svg>
