<svg width="46" height="40" viewBox="0 0 46 40" fill="none" xmlns="http://www.w3.org/2000/svg">
<path d="M44.5122 6.17644C43.9661 3.75562 42.4876 1.88588 40.613 1.20776L40.5734 1.19523C37.0463 3.10341e-05 22.8486 3.14587e-05 22.8486 3.14587e-05C22.8486 3.14587e-05 8.68768 -0.0232289 5.12376 1.19523C3.20951 1.88588 1.73103 3.75562 1.19481 6.12635L1.18491 6.17644C0.558144 10.2577 0.200195 14.949 0.200195 19.7477C0.200195 19.8444 0.200195 19.9428 0.200195 20.0394V20.0251C0.200195 20.0913 0.200195 20.1718 0.200195 20.2505C0.200195 25.0492 0.558144 29.7406 1.24291 34.287L1.18491 33.8218C1.73103 36.2426 3.20951 38.1124 5.08414 38.7905L5.12376 38.803C8.64806 40 22.8486 40 22.8486 40C22.8486 40 37.0081 40 40.5734 38.803C42.4876 38.1124 43.9661 36.2426 44.5023 33.8719L44.5122 33.8218C45.1135 29.8265 45.4573 25.2281 45.4573 20.5296C45.4573 20.3525 45.4573 20.1754 45.4559 19.9982V20.0251C45.4573 19.8605 45.4573 19.6654 45.4573 19.4704C45.4573 14.7719 45.1135 10.1736 44.4557 5.71661L44.5122 6.17823V6.17644ZM18.3169 28.5919V11.4314L30.1335 20.0251L18.3169 28.5919Z" fill="url(#paint0_linear_109_915)"/>
<defs>
<linearGradient id="paint0_linear_109_915" x1="22.8288" y1="0" x2="22.8288" y2="40" gradientUnits="userSpaceOnUse">
<stop offset="0.0001" stop-color="#C4C23D" stop-opacity="0.85"/>
<stop offset="1" stop-color="#FB9803" stop-opacity="0.85"/>
</linearGradient>
</defs>
</svg>
